<mxfile host="Electron" modified="2023-12-07T21:05:22.636Z" agent="Mozilla/5.0 (Windows NT 10.0; Win64; x64) AppleWebKit/537.36 (KHTML, like Gecko) draw.io/22.1.2 Chrome/114.0.5735.289 Electron/25.9.4 Safari/537.36" etag="o-El7ZaaiMZjal9GZz--" version="22.1.2" type="device">
  <diagram name="Page-1" id="wLRi5SWhpTUb02jTeV0G">
    <mxGraphModel dx="2836" dy="1640" grid="1" gridSize="10" guides="1" tooltips="1" connect="1" arrows="1" fold="1" page="1" pageScale="1" pageWidth="850" pageHeight="1100" math="0" shadow="0">
      <root>
        <mxCell id="0" />
        <mxCell id="1" parent="0" />
        <mxCell id="cRKTQEILxnGgDWBcueT5-1" value="" style="shape=image;verticalLabelPosition=bottom;labelBackgroundColor=default;verticalAlign=top;aspect=fixed;imageAspect=0;image=data:image/png,iVBORw0KGgoAAAANSUhEUgAAAlgAAAGQCAYAAAByNR6YAAAAOXRFWHRTb2Z0d2FyZQBNYXRwbG90bGliIHZlcnNpb24zLjUuMSwgaHR0cHM6Ly9tYXRwbG90bGliLm9yZy/YYfK9AAAACXBIWXMAAA9hAAAPYQGoP6dpAABdu0lEQVR4nO3dd1hTZ/8G8DsJIWwcCIhSwFEr4sRq3SiCiruvo2otjuqvrbaOV1ut7Su2Kmrr6LROtMNR664TFXBUK866qlUB0WKtoiA7kOf3ByY1JezEE8L9uS6uNud885wn5yHJ7XMGMiGEABEREREZjVzqDhARERFZGgYsIiIiIiNjwCIiIiIyMgYsIiIiIiNjwCIiIiIyMgYsIiIiIiNjwCIiIiIyMgYsIiIiIiNjwCIiIiIyMgYsIiIiIiNjwCIiIiIyMgYsIiIiIiNjwCIiIiIyMgYsIiIiIiNjwCIiIiIyMosOWIcPH0bv3r3h4eEBmUyGbdu2mXR73t7ekMlkBX7GjRtn0u0SERGRebHogJWeno6mTZviyy+/fCbbi42NRVJSku4nMjISADBw4MBnsn0iIiIyDxYdsHr06IHZs2fj5ZdfNrg+JycH7777LmrVqgV7e3u0bt0a0dHRZd5ejRo14O7urvv5+eefUbduXXTq1KnMbRIREVHFY9EBqzgjR47EsWPHsGHDBvz2228YOHAgunfvjj/++KPcbefk5OD777/HqFGjIJPJjNBbIiIiqihkQgghdSeeBZlMhq1bt6Jfv34AgBs3bqB+/fq4ffs2PDw8dHVdu3ZFq1atMHfu3HJt78cff8TQoUNx69YtvfaJiIjI8lXaGawzZ85ACIHnn38eDg4Oup+YmBjcuHEDABAfH2/wpPWnf8aPH2+w/VWrVqFHjx4MV0RERJWQldQdkIpGo4FCocDp06ehUCj01jk4OAAAatWqhStXrhTZTtWqVQssS0hIwIEDB7BlyxbjdZiIiIgqjEobsJo3b468vDzcu3cPHTp0MFijVCrxwgsvlLrtiIgIuLq6omfPnuXtJhEREVVAFh2w0tLScP36dd3juLg4nDt3DtWqVcPzzz+PYcOG4bXXXsPChQvRvHlz3L9/H4cOHULjxo0REhJSpm1qNBpEREQgNDQUVlYWvXuJiIioEBZ9knt0dDQ6d+5cYHloaCjWrFkDtVqN2bNn49tvv8WdO3dQvXp1tGnTBrNmzULjxo3LtM39+/ejW7duuHr1Kp5//vnyvgQiIiKqgCw6YBERERFJodJeRUhERERkKgxYREREREZmcWdhazQa/Pnnn3B0dOQd1ImIiKhMhBB4/PgxPDw8IJeXfj7K4gLWn3/+CU9PT6m7QURERBYgMTERtWvXLvXzLC5gOTo6AsjfIU5OTkZvX61WY//+/QgODoZSqTR6+2QcHCfzxzEyfxyjioHjZBqpqanw9PTU5YrSsriApT0s6OTkZLKAZWdnBycnJ/4imzGOk/njGJk/jlHFwHEyrbKebsST3ImIiIiMjAGLiIiIyMgYsIiIiIiMzOLOwSIiqgzy8vKgVqtNug21Wg0rKytkZWUhLy/PpNuisuM4lY1SqYRCoTBZ+wxYREQViBACd+/exaNHj57Jttzd3ZGYmMj7CpoxjlPZValSBe7u7ibZbwxYREQViDZcubq6ws7OzqRfqBqNBmlpaXBwcCjTjRbp2eA4lZ4QAhkZGbh37x4AoGbNmkbfBgMWEVEFkZeXpwtX1atXN/n2NBoNcnJyYGNjwy9uM8ZxKhtbW1sAwL179+Dq6mr0w4UcCSKiCkJ7zpWdnZ3EPSGyDNr3kinOZ2TAIiKqYHieDZFxmPK9xIBFREREZGQ8B6uU5DNn4qV9+6BYuhTgvyLLx9ERmDsXqFdP6p4QkQWLjo5G586dMXPmTISFhUndHUmY4z7w9vYGAMTHx0vaD1NhwCol2ZkzcDtzRupuWI4GDYCPP5a6F0T0DJTkcMzZs2fRrFmzUrUbHx8PHx8fhIaGYs2aNWXrnAQCAgIQExMDIYTUXdHRaDTw9vZGYmIiLl26BF9f30Jr09PTUbNmTWRnZ+PPP/98JhdeVCQMWKWkmTgR5xo0QJMmTWBlxd1XZuvXA/v2ATk5UveEiJ6xmTNnFrrO3d3d6Ntr1aoVrly5AhcXF6O3bWnkcjlGjRqFWbNmYeXKlVi0aFGhtRs2bMDjx4/xyiuvMFwZwIRQSiIwEInZ2WgcEgLwr5aX3YUL+QHLjP7lRkTPxrM+RGVnZ4cXXnjhmW6zIhs9ejRmz56N7777DvPmzYO1tbXBupUrVwIAxowZ8yy7V2HwJHeShvZQAQMWERUiJSUFs2bNQqNGjeDo6AgHBwd4e3tj4MCBOH36NID8sObj4wMAWLt2LWQyme5He7gwOjoaMpmsQLALCAiATCaDWq3GRx99hLp168LGxgYNGjTAihUrdHVfffUV/Pz8YGtri9q1ayMsLAwajaZAf9esWYP//Oc/qFOnDmxtbeHk5IR27drh22+/1auLj4+HTCZDTEwMAOj1OSAgQK/29u3bGD9+POrUqQOVSoXq1aujT58+iI2NNbjP/vrrL4wePRpubm6wtbVFs2bNSn3Y1NPTE927d8f9+/exbds2gzWXLl3CiRMnUK9ePXTu3Bk5OTn48ssvERISAi8vL6hUKlStWhWBgYHYtWtXibcdFhYGmUyG6OjoAuu0+23EiBEF1mVkZCA8PBzNmjWDvb09HBwc0KZNG6xfv77E2zY2zmCRNLQ3wzPwIUVEJIRA9+7dceLECbRp0wZjxoyBlZUVEhMTER0djePHj8Pf3x8BAQF49OgRPvvsMzRt2hT9+vXTtVHSc7leeeUV/PrrrwgJCYFSqcRPP/2EsWPHwtraGqdOncK6devQq1cvdO3aFTt37sSsWbNga2uL9957T6+dN998E76+vujYsSNq1qyJ+/fvY9euXQgNDcXvv/+OuXPnAsj/8ywzZ87EmjVrkJCQoHfIVHviNwCcOXMGwcHBSE5ORrdu3fDyyy/rQk/79u2xdetWhISE6OofPHiAtm3b4ubNm2jfvj3at2+PpKQkvPnmmwgKCirV/h8zZgx27dqFlStXYtCgQQXWawPo66+/DplMhuTkZEyYMAFt27ZFUFAQatSogaSkJGzfvh29evXCsmXLMHbs2FL1oaQePXqELl264OzZs/D398eoUaOg0Wiwb98+DB06FJcuXcLs2bNNsu0iCQuTkpIiAIiUlBSTtJ+TkyO2bdsmcnJyTNJ+pfHee0IAQkyaZJLmOU7mj2NUepmZmeLy5csiMzPzmWwvLy9PPHz4UOTl5RmlPQACgJg5c6bBn/DwcF3t+fPnBQDRt29fg/1KTk7WPY6LixMARGhoqMHtRkVF6bb7tE6dOgkAomXLluLhw4e65Tdu3BBKpVI4OzsLb29vcfv2bd26R48eCRcXF+Hi4iLUarVee9evXy+w7aysLBEQECCsrKxEYmKiwe0bolarRd26dYWNjY04cuSI3ro7d+4IDw8P4ebmJjIzM3Xj9PrrrwsAYuLEiXr1sbGxwsrKyuA+KExubq7w8PAQMplMxMXFFXhN1apVE0qlUty9e1e37N+vTwghkpOTRcOGDUXVqlVFRkaG3jovLy/h5eWlt2zmzJkCgIiKiirQVmHjHBoaKgCITz/9VG95Zmam6Natm5DJZOLMmTMGX2dR76ny5gnOYJE0eIiQqNzG7BiDi39fNN0GRP6f51EoFEAhFwD61fDDij4rDK8sxKxZswwud3Z2xrRp0wD8c8WhobvWy+VyVK1atVTbLMr8+fNRpUoV3eM6deqgffv2iIqKwqJFi1CrVi29Pvbu3RsRERG4c+cOvLy8dOvq1q1boG2VSoXx48cjOjoahw4dwmuvvVaiPu3atQs3btzA1KlT0b59e711Hh4eePfddzFx4kQcPHgQPXr0gFqtxrp16+Do6FjgUGjLli0xbNgwrF27tkTbBgCFQoFRo0Zh9uzZWL16NT766CPdui1btiA5ORn/+c9/4ObmpnudtWvXLtBO1apVMXr0aEyZMgWxsbHo2LFjiftQEg8ePMD333+PF198Ef/973/11tnY2GD+/PnYt28f1q1bh+bNmxt128VhwCJpMGARldvFvy/ixO0TUnej1EQJ3ve+vr5o3rw51q9fj8TERPTp0wft2rVDy5YtCz3puqz8/f0LLPPw8Ch23e3bt/UC1q1btzB//nwcPHgQt27dQmZmpt7z7ty5U+I+HT9+HED+eUeGLgr4448/AAC///47evTogWvXriEjIwMdOnSAs7NzgfqAgIBSBSwg//Df3LlzERERgZkzZ+r+Vp/28OC/D/ldunQJn3zyCQ4fPoykpCRkZWXprS/N6y+p2NhY5OXlATB88YT2T+D8/vvvRt92cRiwSBoMWERUBIVCgYMHD+Kjjz7CTz/9hHfffRcA4OTkhBEjRmDu3Lmwt7c3yrYMBRLtbXiKWvf036+7efMmWrVqhYcPH6JDhw4IDg6Gs7MzFAoF4uPjsXbtWmRnZ5e4Tw8ePAAAbNq0qci6tLQ0AEBqaioA6GaU/q0st7/w8vJCUFAQ9u3bh71796Jnz564ceMGoqOj4e3tja5du+pqT5w4gS5duiA3NxeBgYHo06cPnJycIJfLce7cOWzfvr1Ur7+ktPspNja20BP/gX/207PEgEXSYMAiomJUrVoVixcvxuLFi3H9+nXExMRg2bJl+Pzzz/Ho0aNSz8iY0qJFi/DgwQNEREQUuMpt/fr1pe6rNtht374dffr0KbJWo9HAyckJQP5VhIbcvXu3VNvXGjt2LPbt24eVK1eiZ8+eWLlyJYQQGD16NOTyf25EMHv2bGRmZiIqKqrAlZDh4eHYvn17ibanbTM3N7fAukePHhVYpt1PkyZNKvKeXVLgbRpIGgxYRFQK9erVw+jRoxETEwMHBwds3bpVt0576Ep7qEgK169fBwD85z//KbBOezuGfyuq3y+99BIA4MiRIyXa/vPPPw87OzucO3cOKSkpBdYbuu1BSfTp0wfu7u74+eefcfv2baxdu1Z3ftbTrl+/jmrVqhUIV0Dhr98Q7bl1iYmJBdadOnWqwLJWrVpBLpeXeD89S5zBImkwYBGVm18NP9NuoIQnuZtCXFwcMjIy0KhRI73lDx8+RHZ2tt5J6VWrVoVMJjP4pfysaG+vEBUVpTfjpJ39MUR79/PExES92zMAQN++fVG3bl189dVX6Ny5s97tGLSOHz+Opk2bwsbGBkqlEkOHDsXKlSsRFhaGxYsX6+pOnTqFH374oUyvy8rKCiNGjMC8efMwdOhQJCUloU+fPrrz0LS8vb1x9epV/Pbbb2jSpIlu+apVq7Bv374Sb69169YAgIiICAwfPlx3ODYxMVHvRHstV1dXDBs2DN999x0+/vhjTJ8+vcBfWblx4wbkcrnufmnPCgMWSYP3wSIqt9JevVdaGo0GqampunNpjKWoO7n369cPzZo1w/nz59G/f3/4+/vDz88PHh4e+Pvvv7F9+3ao1Wq9e1A5ODigdevWOHz4MF599VXUr18fCoUCffr00fuyN6W33noLERERGDRoEP7zn/+gVq1auHjxIvbu3YtBgwZh48aNBZ4TGBiITZs24eWXX0aPHj1ga2sLLy8vDB8+HEqlElu2bEG3bt3Qs2dPtG3bFs2aNYOdnR0SExMRGxuLmzdvIikpCTY2NgCAOXPm4NChQ1iyZAlOnTqluw/Wxo0bERISgh07dpTptY0ZMwbz58/XzRIZup/VxIkTsW/fPrRv3x6DBg2Cs7MzTp06haNHj2LAgAH46aefSrStVq1aISAgANHR0WjVqhW6dOmCv/76Czt37kS3bt0Mhugvv/wSf/zxB/73v//hu+++Q/v27eHm5oY///wTV65cQWxsLNavX8+ARZUEZ7CIKq3CbtMA5M+ENGvWDC1btsT06dMRExODvXv34uHDh6hRowb8/f3xzjvvoEePHnrP++677zBp0iTs2bMH69atgxACtWvXfmYBq0mTJoiKisIHH3yA3bt3Izc3F02bNsWWLVtQpUoVgwHr9ddfR0JCAjZs2IAFCxYgNzcXnTp1wvDhw3Vtnj9/HosWLcLPP/+MiIgIyOVy1KxZE82bN8esWbP0/r6ii4sLjh07hvfffx87d+7EqVOn0KBBAyxduhTe3t5lDlh16tRBYGAgDhw4gNq1a6N79+4Farp3746dO3di9uzZ2LhxIxQKBVq1aoWoqCjcvHmzxAELALZt24Z3330XW7duxRdffIH69etjwYIFCA4Oxo8//lig3snJCTExMVi+fDnWrVuHzZs3IysrC25ubqhfvz4WL15c6hutGoNMlOR62QokNTUVzs7OSElJ0Z30Z0xqtRq7d+/W3fGXyuijj4CZM4H/+z/gm2+M3jzHyfxxjEovKysLcXFx8PHx0c1amJKpZrDIuDhOZVfUe6q8eYIjQdLgDBYREVkwBiySBgMWERFZMAYskgYDFhERWTAGLJIGAxYREVkwBiySBgMWERFZMAYskoY2YPE+WEREZIEYsEga2kuJOYNFREQWiAGLpMFDhEREZMEYsEgaDFhERGTBGLBIGgxYRERkwRiwSBoMWEREFs/b2xve3t5Sd0MSDFgkDQYsokpHJpNBpn3vV2JhYWG6faH9kcvlcHZ2Rtu2bfHVV18hNzdX6m5SOVlJ3YF/y83NRVhYGH744QfcvXsXNWvWxIgRI/DBBx/wj1haEgYsIqrkOnXqhICAAAD5332JiYnYsWMHxo8fj19++QU//PCDtB2kcjG7gDV//nx88803WLt2LRo1aoRTp05h5MiRcHZ2xoQJE6TuHhkL74NFRJVcQEAAwsLC9JYlJCSgUaNGWLduHebMmVNpD69ZArObEjp+/Dj69u2Lnj17wtvbGwMGDEBwcDBOnTolddfImHgfLCIqQlZWFsLDw9G4cWPY2dnByckJHTp0wIYNG/Tq0tLSYG1tjfbt2+stT09Ph7W1NWQyGb777ju9dV9//TVkMhlWr16ttzw5ORnTp09Hw4YNYWtrC2dnZwQGBmL//v0F+rdmzRrIZDKsWbMGu3btQseOHeHk5FTuQ6BeXl5o0KABAODvv/8usP7UqVN4+eWX4erqCpVKBS8vL7z11ltISkoqUBsQEFBof57u/9O050xlZGRg6tSpeO6556BSqVCvXj3MmzcPwsBnthACX375JRo1agQbGxvUqlUL48aNQ0pKShn2gOUwu4DVvn17HDx4ENeuXQMAnD9/HkePHkVISIjEPSOj4iFCIipETk4OgoOD8f7770Oj0WDcuHEYPnw4rl69iiFDhuC9997T1To4OKBVq1b49ddfkZaWplt+5MgRqNVqAMDBgwf12j906BAAIDAwULcsISEB/v7+mDdvHlxdXfHmm29i8ODBuHLlCrp3747ly5cb7OumTZvQp08fODs744033sCAAQPK9doTExNx9epVODo64oUXXtBbt337drRt2xa7du1CUFAQJk+ejOeffx7Lli1Dly5dcPPmzXJtW0utViM4OBibN29Gjx498PrrryMzMxPTp08vMOMGABMnTsTbb7+Nhw8fYuzYsXjllVewb98+dO3aFTk5OUbpU0VkdocI33vvPaSkpOCFF16AQqFAXl4e5syZgyFDhhisz87ORnZ2tu5xamoqgPxfEO2by5i0bZqi7cpErtFAAUCTl4c8jlOlxDEqPbVaDSEENBoNNM/g8Lp2tkK7TWMprq1PPvkER44cQc+ePbFlyxZYWeV/VX3wwQdo3bo1FixYgJ49e+pmrTp37oxjx44hOjpa94/xAwcOwMrKSvePdu02NRoNoqOjUadOHXh6euqWh4aGIiEhARs2bMDAgQN1fXn06BG6dOmCCRMmoFevXnB3d9d7DXv27MHPP/+M7t27l/j1afdrdHQ0Zs6cCSD/HKw7d+5g586dsLW1xfLly2Fvb69rKy0tDaNGjdL1v23btrr2wsPD8cEHH+CNN94wONtmqD9P749/r//zzz/RpEkTXLhwAba2tgCADz/8EC+88AKWLFmC999/H0qlEgDwyy+/4PPPP0fdunVx4sQJVKtWDQDw8ccfIzAwEElJSfDy8nomv69lodFoIISAWq2GQqHQW1fezyazC1gbN27E999/j3Xr1qFRo0Y4d+4cJk6cCA8PD4SGhhaoDw8Px6xZswos379/P+zs7EzWz8jISJO1XRl4X7qEpgDuJiUhdvduk22H42T+OEYlZ2VlBXd3d6SlpSEnJwcTJtjiyhVF8U8sFwcA4slPQQ0b5uGzzzJL1aL2H8KFWbVqFWQyGcLCwpCRkaFbbmtri//+97+YOHEili9fjiZNmgAAXnrpJQDA3r17daErMjISLVq0QPfu3TFt2jScOXMG9erVw/nz5/HgwQP06tVL148LFy4gJiYG/fr1Q7du3fT6J5fL8e6772LYsGH44YcfMGbMGAD5hzABoEePHmjbtm2xr+lp2kmBmJgYxMTE6K2zsrLCq6++ivr16+u1uXHjRiQnJ2PgwIHw8/PTWzd27FgsW7YMBw8exMWLF/Hcc88BgO5KREN90/Y/KytLb702CM2dO1dvosLGxgY9evTAhg0bcPr0afj6+gIAVqxYAQCYNGkSrKys9NqaMWMGevfuDY1GU6r98yzl5OQgMzMThw8fLnDl5tO/e2VhdgFr6tSpmDZtGl555RUAQOPGjZGQkIDw8HCDAWv69OmYPHmy7nFqaio8PT0RHBwMJycno/dPrVYjMjISQUFBugRPpSdPTAQAuLu5meTwL8fJ/HGMSi8rKwuJiYlwcHCAjY0Nrl2TITZW2tseKBQKODmVbvyK+mx+/Pgx4uLiULt2bbRo0aLA+l69emHixIm4ePGirp3AwEDY2tri2LFjcHJyQnJyMi5evIj3338fISEhmDZtGn799Ve0aNECJ0+eBAC974gLFy4AyJ8lWrx4cYFtas+FSkhI0D3HxsYGANCuXbtSf9eoVCoAwP/+9z/dDJZGo0FSUhK2b9+OKVOmYO/evThx4gQ8PT0BAFevXgUABAUFFdieEALt2rXDhg0bcP36dfj5+QGAbubPUP+0/bexsdFbL5fLUaVKFTRt2rTAc+rUqQMg/72rfc7FixcBAN26dSuwnW7dusHKygpyudwk38fGkJWVBVtbW3Ts2FG3T7TKGwrNLmBlZGQUuB2DQqEodHpRpVLpflmfplQqTfqhber2Ld6TN75cJoOc41SpcYxKLi8vT3fPJPO5bY0McnnpQl5RfX/8+DEAwN3d3WBdrVq1AAApKSm69TY2Nmjfvj0OHDiA5ORkxMTEQKPRoGvXrmjcuDHc3d0RFRWFcePG4dChQ5DJZOjatavu+Q8fPgSQf1jxwIEDhfYtPT1d9xztf2vWrFnqsdCeeK4dS217np6eGD9+PO7evYs5c+Zg7ty5WLZsGYB/vuw9PDwKbE+j0cDNzU23//693lD/nt7uv9c7OzsbfI72fSqE0K3XnshuaD/I5XJUr1690D6YA7lcDplMZvBzqLyfS2b3inv37o05c+Zg165diI+Px9atW7Fo0SL0799f6q6RMfEkdyIywNnZGQBw9+5dg+u1V8tp67S6dOkCIQSioqJw8OBB2Nraok2bNrp1UVFRyM7OxpEjR9CoUSO4uroW2OZnn30GIUShPxEREQX6Y4obp7Zu3RoAdLNtT/exsP3y119/6dUB/4QaQzctffTokVH6qt2edvtPy8vLw4MHD4yynYrI7ALWF198gQEDBuCtt95Cw4YNMWXKFPzf//0fPv74Y6m7RsbEgEVEBjg6OqJu3bq4c+cO/vjjjwLro6KiAKDA4UPtFYGHDh3CoUOH0KFDB1hbW+vWJScnY+nSpUhPT9e7ehD45xyuI0eOGP31lIV2Ru3pIzfNmzcHkH9i/L/l5ubixIkTAPT3S9WqVQHkX5n4b8a69ZF2e/8+lwzI35+V+Y70ZneI0NHREUuWLMGSJUuk7gqZkna62EyvLCGqCJ6camNCAnl5eU+urjI8U2OKPowaNQozZszA1KlTsXnzZt3VXffv39f9Y3vUqFF6z/H390eVKlWwZcsW3Lt3T2+9NlCFh4cDyJ/RelrLli3RoUMHbNmyBatXry7QNpB/npabm5vezJcpZGdn4+uvvwYA3V3eAaBfv36oVq0a1q9fj3HjxulCIZA/8xYfH4/AwEDdCe5A/kzYli1bsGLFCsydO1e3/ODBg1i/fr1R+jtixAisXLkSc+bMQd++fXVXEWZlZWH69OlG2UZFZXYBiyoJzmARlduTC7hMRqMRSE1Ng5OTU6nPsyrKiBEjCl339ddfY8qUKdizZw+2b9+Opk2bIiQkBBkZGdi0aRPu3buHd999t8CNReVyOTp16oTt27cD0L/HlZeXF+rWrYsbN25AoVCgU6dOBba7bt06dOnSBaNHj8bnn3+O1q1bo0qVKrh9+zZ+++03XLx4EcePHzdqwIqOjtbdV0oIgaSkJOzZswe3b99GnTp1MGPGDF2tg4MDVq9ejYEDB6JTp04YOHAgnnvuOZw+fRr79++Hm5sbvvnmG732R44ciU8//RTh4eE4f/48fH19ce3aNezZswf9+/fH5s2by/0a2rVrh7fffhtffPEF/Pz8MGDAACiVSmzfvh1Vq1ZFzZo1y72NiooBi6TBgEVUaa1du7bQdUuWLIGdnR0iIyOxaNEirFu3Dl988QWsrKzQtGlTLFmypND7IgYGBuq+2LWH1J5ed+PGDfj7+xc4fwsAateujdOnT+OLL77A5s2b8cMPPyAvLw/u7u7w9fXF22+/jcaNG5fvhf/Lv2/TYGdnh3r16iE0NBRTpkxBlSpV9Or79u2LY8eOYe7cudi3bx9SUlLg7u6O//u//8OECRN0V/lp1ahRA9HR0Zg6dSoOHz6MmJgYtGzZEpGRkYiLizNKwALyZ9Cef/55fPXVV1i2bBmqV6+O/v37Y+7cuQavRqwsZMLQfe8rsNTUVDg7OyMlJcVkt2nYvXs3QkJCeOVTeUREAKNGASEhwK5dRm+e42T+OEall5WVhbi4OPj4+BS4pNwUtPcvyp/BMrtTdukJjlPZFfWeKm+e4EiQNDiDRUREFowBi6TBgEVERBaMAYukwYBFREQWjAGLpMGARUREFowBi6TB+2AREZEFY8AiaXAGi4iILBgDFkmDAYuIiCwYAxZJgwGLiIgsGAMWSYMBi4iILBgDFkmDAYuIiCwYAxZJgwGLiMjixcfHQyaTFfkHvi0VAxZJgwGLqFKJjo6GTCZDQEBAoTXaL2Nvb+9n1i+pBAQEQCaT6f1YWVnBzc0NPXv2xJ49e6TuIpWTldQdoEpKG7B4HywiqsRCQ0N1gTIzMxNXr17Frl27sHv3bixbtgxjx46VtoNUZgxYJA3tjUY5g0VEldiIESMKzOpt3rwZAwYMwNy5cxmwKjAeIiRp8BAhEZVQWFgYZDIZoqOjsXbtWjRv3hy2trZwdXXFqFGjcPfu3QLP0R6Cy87OxgcffAAfHx+oVCrUrVsXs2bNQk5OjsFt/f777xgxYgQ8PT2hUqng5uaGoUOH4urVqwVqR4wYAZlMhps3b2LJkiVo3LgxbG1tizwMWhLBwcEAgL///tvg+o0bN6JDhw5wdnaGra0tmjRpgoULFyIrK6tAbVGHZbX9j4+P1y17+pyp+Ph4vPLKK3BxcYGNjQ38/f2xY8cOg209fvwYkydPRu3atWFjY4MXXngBCxcuhKYSH6XgDBZJgwGLiEpp8eLF2L9/PwYPHozu3bvj6NGjiIiIQHR0NH799VfUqFGjwHMGDRqE2NhYDBgwAEqlEtu3b0dYWBhOnTqFHTt2QKb9LAKwd+9evPzyy8jNzUWvXr1Qr1493L59G1u2bMGuXbsQFRWFFi1aFNjGO++8g6NHj6Jnz54ICQmBQqEo1+s8cOAAAKBVq1YF1r333ntYsGABatSogWHDhsHe3h67d+/G7NmzERMTgwMHDsDa2rpc2weAhIQEtGrVCnXq1MHw4cORnJyMjRs3ol+/foiMjERgYKCuNjs7G4GBgYiNjUXTpk0xbNgwPHr0SNenyooBi6TBgEVEpbRnzx78+uuvaN68uW7ZpEmTsGTJEkybNg2rVq0q8JwrV67g0qVLqFq1KgBgzpw56Ny5M37++Wd8//33GD58OADg4cOHGDJkCOzt7XHkyBG88MILujYuXbqE1q1bY/To0Th79myBbZw9exZnz56Fj49PqV/TmjVrEB0dDQDIysrCtWvX8PPPP8PPzw9Lly7Vqz127BgWLFgALy8vnDx5Eq6urrrX1KtXL0RGRuKTTz7BjBkzSt2Pf4uOjkZYWBhmzpypWzZ06FB0794dn376qV7AWrhwIWJjY/Hyyy9j06ZNkD85BWTatGnw9/cvd18qKgYskgYDFlH5jRkDXLxosuZlABzy8iArakbGzw9YscJkfXja8OHD9cIVkH/4MCIiAuvWrcPXX38NlUqlt/7DDz/UhSsAsLGxQXh4ODp37ozVq1frAta3336LR48e4auvvtILVwDQqFEjjBkzBkuWLMGlS5fQqFEjvfVTp04tU7gCgLVr1xZYVq1aNQwePLjA1ZQREREAgA8++EAXrgDAysoKc+bMwcGDB7Fq1SqjBCxvb2988MEHesu6deuG5557DrGxsQX6JZfLsWDBAl24AgAfHx+88847mDVrVrn7UxExYJE0GLCIyu/iReDECZM1L4N5fUl06tSpwDJnZ2c0a9YMMTExuHLlCpo1a1bsczp06AArKyu92ajjx48DAM6dO4ewsLACz7l27RqA/HO0/h2wWrduXdqXohMVFaU7R0qtViM+Ph5LlizBhx9+iP379yM6OloXWrT97dy5c4F26tevj9q1ayMuLg6PHj1ClSpVytwnAGjWrJnBQ52enp66fQXkn3t1/fp1eHp6om7dugXqAwICGLCInikGLKJKRRsSijrpWbvu6VmQp7m5uRlc7u7uDgBISUkp0XMUCgWqV6+Oe/fu6ZY9ePAAALCimNm4tLS0QrdfXkqlEvXr18dXX32F8+fP48iRI9i4cSOGDBkC4J/XV9j2atasiVu3biElJaXcAcvZ2dngcisrK70x1PapuLGpjHgVIUmDAYuoUtF+YWuDjCH3798HgELDwV9//WVwufYqQkOhwNBz8vLy8ODBAzg5ORXo3/nz5yGEKPQnNDS0QHtPnyhvLNpZsZMnTxboo6GrJgEgKSlJr07bt9zcXIP1jx49Knc/tdsqbmwqIwYskob2X6iV+BJeosqkQYMGUKlUuHbtWqEhS3voqUmTJgbXG7oiLSUlBefOnYONjQ0aNmxYouccOXIEubm5eudzvfTSS7p15uDhw4cA9Gf8tP3VnhT/tJs3b+L27dvw8fHRC6hVq1ZFYmJigfq8vDycO3eu3P10dHREvXr1cOfOHdy4caPAekN9rSx4iJCkwRksovLz8zNp8wL5X8QKhQKFztGUsA82NjYYNGgQvvvuO0ydOhWrVq3Sm/m5ffs2PvnkEwAwOEsEAN999x3Gjx+vF4zCwsKQkpKCkSNHFjjBHQA+/vhj9OrVS3eie1ZWFqZPnw4AGDlypK5u5MiRmDNnDmbNmoUXX3yxwC0SNBoNDh8+XO57XJVEfHw8tmzZAgB62xs1ahRWrVqF2bNno0+fPrrbUuTl5eHDDz+ERqPB6NGj9dpq3bo19uzZg/379+vurwUAs2fPRkJCglH6O3LkSMyYMQPvvfcefvzxR90h3ri4OHz++edG2UZFxIBF0mDAIio/E1+9JzQapKWmwsnJCbJCzosqjUWLFuHkyZOIiIjA8ePHERQUBCcnJyQkJGD79u14/PgxpkyZYvAkbgAICQlBu3btMGjQINSsWRNHjx7F0aNH4e3tjXnz5hl8jq+vLxo1aqR3H6wbN26gZ8+euisIAaB69er46aef0L9/f7z00ksIDAxEo0aNIJfLcevWLRw/fhwPHjwweDPP8nj6Ng1qtRoJCQnYtm0b0tPT0bt3b/Tr109X27ZtW7z77rtYsGAB/Pz8MGDAANjb22PPnj24ePEi2rdvj6lTp+q1P2XKFOzbtw99+/bF4MGDUa1aNfzyyy+Ii4tDQECAUWaY/vvf/2Lbtm3YvHkzWrRogW7duiElJQUbN25Ex44dC705qcUTFiYlJUUAECkpKSZpPycnR2zbtk3k5OSYpP1KY/9+IQAhmjQxSfMcJ/PHMSq9zMxMcfnyZZGZmflMtpeXlycePnwo8vLyjNZmamqqmD17tvD39xeOjo7CyspKuLq6ip49e4odO3YYfM7MmTMFABEVFSXWrFkjmjZtKmxsbISLi4sYMWKE+PPPPws8p1OnTgKAyMrKEjNmzBDe3t7C2tpa+Pj4iLCwMJGVlWVwW3FxcWLcuHGiXr16QqVSCUdHR9GgQQPx6quviq1bt+rVhoaGCgAiLi6u1PtB27+nf2QymahSpYpo3769WLZsmcjNzTX43PXr14t27doJBwcHoVKphK+vr5gxY4ZIT083WL9jxw7h7+8vVCqVqFatmhg8eLCIj4832P+4uDgBQISGhhbZ739LSUkRkyZNEh4eHkKlUokGDRqITz/9VNy4caPI9qRW1HuqvHlCJoRlTSGkpqbC2dkZKSkpeicwGotarcbu3bsREhICpVJp9PYrjQMHgKAgoHFj4LffjN48x8n8cYxKLysrC3FxcfDx8YGNjY3Jt6fRaJD6ZAarsCv7noWwsDDMmjVL75YGxQkICEBMTAws7CvOIHMZp4qoqPdUefMER4KkwUOERERkwRiwSBoMWEREZMEYsEgaDFhERGTBGLBIGrwPFhGVUFhYGIQQpbpFQnR0dKU4/4rMFwMWSYMzWEREZMEYsEgaDFhERGTBGLBIGgxYRERkwRiwSBoMWEREZMEYsEgaDFhERGTBGLBIGgxYRERkwRiwSBoMWERkgby9veHt7S11N3TCwsIgk8mM8kedqXQYsEga2oDF+2ARVUpz5syBTCaDTCbD1atXjdKmuYWborz//vuQyWR47733iq0dOXIkZDIZvvzyy2fQMzIWBiyShvZGo5zBIqp0hBBYtWoVZE/+obVy5UqJe/TsjRkzBjKZDGvXroVarS607vHjx9i0aRNsbW3x6quvPsMeUnkxYJE0eIiQqNLav38/4uLi8Prrr8PV1RVr165FTk6O1N16pnx8fNC1a1f89ddf2LlzZ6F169atQ3p6OgYMGIAqVao8uw5SuTFgkTQYsIgqrRUrVgAAXn/9dQwbNgx///03tm3bVmj97du38c4776B+/fqwsbFBtWrV0KpVK3z88ccA8v8sjkwmQ0JCAhISEnSHHmUyGUaMGAEAiI+P13v8bwEBAboZNa2cnBx8+eWXCAkJgZeXF1QqFapWrYrAwEDs2rWr3Pth7NixAIqewdPuK21tVFQUxo4dC19fXzg5OcHW1haNGzdGeHg4MjMzS7TdsuwLrX379iEkJAQuLi5QqVSoW7cupk6dikePHpVo25WJldQdoEqKAYuoUvrrr7+wY8cONGzYEK1atYKtrS0WL16M5cuXY9CgQQXqT506hW7duiE5ORmdOnXCyy+/jPT0dFy+fBlhYWH48MMP4e3tjZkzZ2LJkiUAgIkTJ+qe36xZszL3NTk5GRMmTEDbtm0RFBSEGjVqICkpCdu3b0evXr2wbNkyXfApi759+8LV1RX79u1DYmIiPD099dafO3cOp0+fRsOGDdG+fXsAwPz58/H777+jbdu26NmzJzIzM3Hs2DEsWLAAx48fx6FDh2BlZZqv9o8++ggzZ85E9erV0bNnT7i6uuK3337Dp59+it27d+OXX36Bs7OzSbZdETFgkTQYsIgqpYiICKjVaoSGhgIAGjdujObNm+PQoUO4efMm6tSpo6vNycnBwIEDkZycjHXr1mHIkCF6bSUmJgLIP7k9LCwMa9asAZB/5ZwxVK1aFQkJCahdu7be8ocPH6Jdu3aYNm0ahg8fDltb2zK1r1QqMWLECCxYsAARERH43//+p7deO3s1ZswY3bKvv/4aPj4+ejNMGo0GU6ZMweLFi/HTTz/hlVdeKVN/ihIVFYWZM2eiXbt22LVrl16QWrNmDUaOHKkXcomHCEkqDFhERtWmTRuj/nz22WdG76MQAitXroRCocDw4cN1y0eOHKlb97SdO3ciPj4effr0KRCuABSY8TE2lUpVIFwB+cFr9OjRePjwIWJjY8u1De3J7qtXr4bmqauqMzMzsW7dOqhUKrz22mu65XXq1DF4+G78+PEA8s9vM4XPP/8cALB8+fICs1QjRoxAs2bNsG7dOpNsu6LiDBZJgwGLyKhOnDhh1PbatGlj1PYA4NChQ7hx4wa6d+8ODw8P3fKhQ4diypQpiIiIwEcffaQ7xKV9TT169DB6X0rq0qVL+OSTT3D48GEkJSUhKytLb/2dO3fK1X69evUQEBCAqKgoREZGolu3bgCATZs24dGjRxgyZAiqV6+uq09PT8dnn32GrVu34tq1a3j8+DHEU5+j5e1PYY4fPw6lUokff/zR4PqcnBz8/fffePDggV5/KzMGLJIG74NFVOksX74cAAqcXF29enX07t0bmzdvxs6dO9G/f38A0J04XatWrWfZTZ0TJ06gS5cuyM3NRWBgIPr06QMnJyfI5XKcO3cO27dvR3Z2drm3M3bsWERFRWHlypW6gKWdzXv68KBarUaXLl1w8uRJ+Pn5YfDgwahRowasrKyQnZ2N+fPnG6U/hjx48AC5ubmYNWtWkXVpaWkMWE8wYJE0eB8sokrl6SsFX3nllULPE1q+fLkuYGlvS2CMWRn5k8+c3Nxcg+sNXQU3e/ZsZGZmIioqCgEBAXrrwsPDsX379nL3CwBefvlluLi4YMeOHfj777+RnJyMI0eO6Ga3tLZv346TJ08iNDRUd74ZkH8O1rVr1zB//vwSba8s+8LZ2RkajQbJycklfl2VHQMWSYOHCIkqFe29rvz9/Qu9sm/79u3Yv38/EhIS4OXlhZdeeglA/q0B3njjjWK3oVAoCr2fVtWqVQH8c2L801JTU3Ht2rUCy69fv45q1aoVCFcAEBMTU2x/Ssra2hqhoaFYuHAhvv32W9y9exfAP+dnPd0fAPjPf/5ToI1jx46VeHtl2RcvvfQSdu3ahUuXLqFRo0Yl3lZlxoBF0mDAIjIqbRgxFi8vL6O2pz3k9fXXX6NVq1YGa2rUqIF58+Zh1apV+Oijj9C7d294e3tj27Zt+PHHHwvcxuHOnTt6hw+rV6+O3377DVlZWbCxsdGrdXR0RMOGDXHs2DFcvnwZvr6+AIC8vDxMnjzZ4D2kvL29cfXqVfz2229o0qSJbvmqVauwb9++su2IQowZMwYLFy7EihUrkJycrLvC8N/9AfKv6Ovdu7du+c2bN0t15WRZ9sWkSZOwa9cujBkzBj/99JPeOXRA/rlhFy5cMPrvYUVmlgHrzp07eO+997Bnzx5kZmbi+eefx6pVq+Dv7y9118hYGLCIjOr48eNGb1NjpHMko6OjcfXqVTRu3LjQcAXk33h0/vz5WL16NWbOnAlra2ts2rQJwcHBGDx4ML755hu0atUKmZmZuHLlCg4dOqR3mCswMBCxsbHo0aMHOnToAGtrazRt2lQXRt577z2MGDEC7dq1w8CBA2FjY4OoqCio1Wo0bdoU58+f1+vPxIkTsW/fPrRv3x6DBg2Cs7MzTp06haNHj2LAgAH46aefjLJ/AKBBgwbo2LEjDh8+DAAYMGAAXF1d9Wp69+6NevXqYfHixbh48SKaN2+OW7du4eeff0ZQUBBu375d4u2Vdl8EBgZi3rx5mD59OurXr4+QkBD4+PggLS0NCQkJiImJQfv27bF3797y7wxLIcxMcnKy8PLyEiNGjBC//vqriIuLEwcOHBDXr18v0fNTUlIEAJGSkmKS/uXk5Iht27aJnJwck7RfaVy5IgQgRNWqJmme42T+OEall5mZKS5fviwyMzOfyfby8vLEw4cPRV5eXrnaGTp0qAAgPvvss2JrO3fuLACIHTt26JYlJCSIN998U3h7ewulUimqVasmWrVqJWbPnq333LS0NPHGG2+IWrVqCYVCIQCI0NBQvZrVq1cLX19fYW1tLdzc3MTYsWPF/fv3RadOnYShr8SdO3eK1q1bCwcHB+Hs7CyCgoJETEyMiIiIEABERESEXr2Xl5fw8vIq8b552vfffy8ACABi3759Bmtu3bolhg4dKjw8PISNjY3w9fUV8+bNE3///bcAIDp16qRXP3PmTAFAREVFFWirtPtCCCGOHDkiBg4cKGrWrCmUSqVwcXERTZs2FZMmTRKxsbFlet1SKuo9Vd48IRPCvKYQpk2bhmPHjuHIkSNlen5qaiqcnZ2RkpICJycnI/cu/yqO3bt3IyQkBEql0ujtVxpXrwIvvABUqQI8fGj05jlO5o9jVHpZWVmIi4uDj49PgUNgpqDRaJCamqq7co7ME8ep7Ip6T5U3T5jdSOzYsQMtW7bEwIED4erqiubNm+vuZksWhIcIiYjIgpndOVg3b97E0qVLMXnyZLz//vs4efIk3nnnnQJ3s9XKzs7Wu+9HamoqgPx/HavVaqP3T9umKdquVHJzoUT+nZ1zOU6VEseo9NRqNYQQ0Gg0Rjs/qijaAxzabZJ54jiVnUajgRACarUaCoVCb115P5vM7hChtbU1WrZsiV9++UW37J133kFsbKzBkzjDwsIM3vhs3bp1sLOzM2lfqezskpIQ9OabyLWxwa4NG6TuDlGFYGVlBXd3d3h6esLa2lrq7hBVeDk5OUhMTMTdu3cL3BcsIyMDQ4cOLfMhQrObwapZs6buklGthg0bYvPmzQbrp0+fjsmTJ+sep6amwtPTE8HBwSY7BysyMhJBQUE8b6Q8bt4EkH/fmpCQEKM3z3Eyfxyj0svKykJiYiIcHByeyTlYQgg8fvwYjo6OBv/+HZkHjlPZZWVlwdbWFh07djR4DlZ5mF3AateuHa5evaq37Nq1a4Xek0WlUkGlUhVYrlQqTfqhber2Ld6Tf33LhOA4VXIco5LLy8uDTCaDXC5/Jiczaw83abdJ5onjVHZyuRwymczg51B5P5fMbiQmTZqEEydOYO7cubh+/TrWrVuH5cuXY9y4cVJ3jYyJJ7kTlZmZndlBVGGZ8r1kdgHrxRdfxNatW7F+/Xr4+fnh448/xpIlSzBs2DCpu0bGxIBFVGraf1FnZGRI3BMiy6B9L5liFt3sDhECQK9evdCrVy+pu0GmxIBFVGoKhQJVqlTBvXv3AAB2dnYmPedGo9EgJycHWVlZPPRkxjhOpSeEQEZGBu7du4cqVaoUuILQGMwyYFElwIBFVCbu7u4AoAtZpiSEQGZmJmxtbXnytBnjOJVdlSpVdO8pY2PAImkwYBGViUwmQ82aNeHq6mrye4ip1WocPnwYHTt25IUIZozjVDZKpdIkM1daDFgkDW3A4k3xiMpEoVCY9MtBu43c3FzY2Njwi9uMcZzMEw/WkjS05wlwBouIiCwQAxZJg4cIiYjIgjFgkTQYsIiIyIIxYJE0eKULERFZMAYsksbTAYuzWEREZGEYsEgaDFhERGTBGLBIGgxYRERkwRiwSBpPByzeC4uIiCwMAxZJ4+m/l8UZLCIisjAMWCQNHiIkIiILxoBF0mDAIiIiC8aARdJgwCIiIgvGgEXSYMAiIiILxoBF0mDAIiIiC8aARdJgwCIiIgvGgEXSYMAiIiILxoBF0nj6Pli80SgREVkYBiySBmewiIjIgjFgkTQYsIiIyIIxYJE0GLCIiMiCMWCRNBiwiIjIghktYOXm5uLAgQNYtmwZHj9+DAD4888/kZaWZqxNkCVhwCIiIgtmZYxGEhIS0L17d9y6dQvZ2dkICgqCo6MjFixYgKysLHzzzTfG2AxZEgYsIiKyYEaZwZowYQJatmyJhw8fwtbWVre8f//+OHjwoDE2QZaGAYuIiCyYUWawjh49imPHjsHa2lpvuZeXF+7cuWOMTZAlksnywxXvg0VERBbGKDNYGo0GeXl5BZbfvn0bjo6OxtgEWSLtLBZnsIiIyMIYJWAFBQVhyZIluscymQxpaWmYOXMmQkJCjLEJskQMWEREZKGMcohw8eLF6Ny5M3x9fZGVlYWhQ4fijz/+gIuLC9avX2+MTZAlYsAiIiILZZSA5eHhgXPnzmH9+vU4c+YMNBoNRo8ejWHDhumd9E6khwGLiIgslFECFgDY2tpi1KhRGDVqlLGaJEvHgEVERBbKKAHr22+/LXL9a6+9ZozNkKVhwCIiIgtllIA1YcIEvcdqtRoZGRmwtraGnZ0dAxYZxoBFREQWyihXET58+FDvJy0tDVevXkX79u15kjsVThuweB8sIiKyMCb7Y8/169fHvHnzCsxuEenIn/z6cQaLiIgsjMkCFgAoFAr8+eefptwEVWQ8REhERBbKKOdg7dixQ++xEAJJSUn48ssv0a5dO2NsgiwRAxYREVkoowSsfv366T2WyWSoUaMGunTpgoULFxpjE2SJGLCIiMhCGSVgaXiSMpUFAxYREVkok56DRVQkBiwiIrJQZZ7Bmjx5colrFy1aVNbNkCVjwCIiIgtV5oB19uzZEtXJtF+iRP/GgEVERBaqzAErKirKmP2gykh7Hyyew0dERBaG52CRdDiDRUREFsooVxECQGxsLDZt2oRbt24hJydHb92WLVuMtRmyJAxYRERkoYwyg7Vhwwa0a9cOly9fxtatW6FWq3H58mUcOnQIzs7OxtgEWSIGLCIislBGCVhz587F4sWL8fPPP8Pa2hqfffYZrly5gkGDBuG5554zxibIEjFgERGRhTJKwLpx4wZ69uwJAFCpVEhPT4dMJsOkSZOwfPlyY2yCLBEDFhERWSijBKxq1arh8ePHAIBatWrh4sWLAIBHjx4hIyPDGJsgS8SARUREFqpcAevcuXMAgA4dOiAyMhIAMGjQIEyYMAFjxozBkCFDEBgYWO5OkoViwCIiIgtVroDVokUL+Pv7o2HDhhgyZAgAYPr06ZgyZQr++usvvPzyy1i1alWZ2w8PD4dMJsPEiRPL000yV7wPFhERWahyBaxjx46hRYsW+PTTT1G3bl28+uqriImJwbvvvosdO3Zg0aJFqFq1apnajo2NxfLly9GkSZPydJHMGWewiIjIQpUrYLVp0wYrVqzA3bt3sXTpUty+fRtdu3ZF3bp1MWfOHNy+fbtM7aalpWHYsGFYsWJFmQMaVQAMWEREZKGMcpK7ra0tQkNDER0djWvXrmHIkCFYtmwZfHx8EBISUur2xo0bh549e6Jr167G6B6ZKwYsIiKyUEa7k7tW3bp1MW3aNHh6euL999/Hvn37SvX8DRs24MyZM4iNjS1RfXZ2NrKzs3WPU1NTAQBqtRpqtbpU2y4JbZumaLuysZLJIAOQq1ZDGHl/cpzMH8fI/HGMKgaOk2mUd38aNWDFxMRg9erV2Lx5MxQKBQYNGoTRo0eX+PmJiYmYMGEC9u/fDxsbmxI9Jzw8HLNmzSqwfP/+/bCzsyvxtktLe9UklV3XjAzYA/jl2DE8fPDAJNvgOJk/jpH54xhVDBwn4yrvbaZkQpTv+ExiYiLWrFmDNWvWIC4uDm3btsXo0aMxaNAg2Nvbl6qtbdu2oX///lAoFLpleXl5kMlkkMvlyM7O1lsHGJ7B8vT0xP379+Hk5FSel2aQWq1GZGQkgoKCoFQqjd5+ZWLVsCFkN24gNyYGok0bo7bNcTJ/HCPzxzGqGDhOppGamgoXFxekpKSUKU+UawYrKCgIUVFRqFGjBl577TWMGjUKDRo0KHN7gYGBuHDhgt6ykSNH4oUXXsB7771XIFwB+XeOV6lUBZYrlUqT/qKZuv1K4ck5WFYKBWCifclxMn8cI/PHMaoYOE7GVd59Wa6AZWtri82bN6NXr14Gw09pOTo6ws/PT2+Zvb09qlevXmA5WQDtSe68DxYREVmYcgWsHTt2GKsfVBlpbzTKqwiJiMjCGP0qQmOLjo6WugtkKrxNAxERWSij3AeLqEwYsIiIyEIxYJF0GLCIiMhCMWCRdBiwiIjIQjFgkXQYsIiIyEIxYJF0GLCIiMhCMWCRdHgfLCIislAMWCQd3geLiIgsFAMWSYeHCImIyEIxYJF0GLCIiMhCMWCRdBiwiIjIQjFgkXQYsIiIyEIxYJF0GLCIiMhCMWCRdBiwiIjIQjFgkXQYsIiIyEIxYJF0tPfB4o1GiYjIwjBgkXQ4g0VERBaKAYukw4BFREQWigGLpMOARUREFooBi6TDgEVERBaKAYukw4BFREQWigGLpMOARUREFooBi6TDgEVERBaKAYukow1YvA8WERFZGAYsko72RqOcwSIiIgvDgEXS4SFCIiKyUAxYJB0GLCIislAMWCQdBiwiIrJQDFgkHQYsIiKyUAxYJB0GLCIislAMWCQdBiwiIrJQDFgkHd4Hi4iILBQDFkmH98EiIiILxYBF0uEhQiIislAMWCQdBiwiIrJQDFgkHQYsIiKyUAxYJB0GLCIislAMWCQdBiwiIrJQDFgkHQYsIiKyUAxYJB0GLCIislAMWCQd7X2weKNRIiKyMAxYJB3OYBERkYViwCLpMGAREZGFYsAi6TBgERGRhWLAIukwYBERkYViwCLpMGAREZGFYsAi6TBgERGRhWLAIukwYBERkYViwCLp8D5YRERkoRiwSDqcwSIiIgvFgEXSYcAiIiILxYBF0mHAIiIiC8WARdJhwCIiIgtldgErPDwcL774IhwdHeHq6op+/frh6tWrUneLTIEBi4iILJTZBayYmBiMGzcOJ06cQGRkJHJzcxEcHIz09HSpu0bGxoBFREQWykrqDvzb3r179R5HRETA1dUVp0+fRseOHSXqFZkEAxYREVkos5vB+reUlBQAQLVq1STuCRmdNmDxPlhERGRhzG4G62lCCEyePBnt27eHn5+fwZrs7GxkZ2frHqempgIA1Go11Gq10fukbdMUbVc2cgAKAHm5udAYeX9ynMwfx8j8cYwqBo6TaZR3f8qEMN/jM+PGjcOuXbtw9OhR1K5d22BNWFgYZs2aVWD5unXrYGdnZ+ouUjk0+eYb+Ozdi98HD8bVIUOk7g4REZFORkYGhg4dipSUFDg5OZX6+WYbsN5++21s27YNhw8fho+PT6F1hmawPD09cf/+/TLtkOKo1WpERkYiKCgISqXS6O1XJvJ33oHim2+QN2MGNDNnGrVtjpP54xiZP45RxcBxMo3U1FS4uLiUOWCZ3SFCIQTefvttbN26FdHR0UWGKwBQqVRQqVQFliuVSpP+opm6/UpBocj/j1wOhYn2JcfJ/HGMzB/HqGLgOBlXefel2QWscePGYd26ddi+fTscHR1x9+5dAICzszNsbW0l7h0ZFa8iJCIiC2V2VxEuXboUKSkpCAgIQM2aNXU/GzdulLprZGwMWEREZKHMbgbLTE8JI1NgwCIiIgtldjNYVIkwYBERkYViwCLpyJ/8+vFGo0REZGEYsEg6nMEiIiILxYBF0mHAIiIiC8WARdJhwCIiIgvFgEXSYcAiIiILxYBF0mHAIiIiC8WARdJhwCIiIgvFgEXSYcAiIiILxYBF0uF9sIiIyEIxYJF0OINFREQWigGLpMOARUREFooBi6TDgEVERBbKSuoOUCWmDViHDgFjxhi1aYVGg6aJiVDs2PHPuV5lJZcDtWsDDg76y7X9N8VjU7Zd2m17eACurjC63Fw437gBnD0LWPGjyCxxjCqGyjxO1taAn5/UvTCoko2EcWRlZSE9PR1KpbLAOoVCARsbG93j9PT0QtuRy+WwtbUtU21GRgZEITM/MpkMdnZ2ZarNzMyExsBJ5+k56dh5dSfylHm6ZTlZOYW2CwAqW5Xu/9XZ6gLt+j66iJcA4MoV2F+5olueBSAPhbMDoI0A2QByC6mr8VRdcbUAYIt/pnRzAKiNVGsDQFGGWvWT+sKo8M8buDS1ucjfF4WxBqAsQ20e8seuMMon9draHAAvPvnvv/v+dK0GQGYJ2y2u1gr5+wIABIAMI9UqkD92WoW/k0tXK0f+71pZajOQ329DZMh/H5WkthX+GWMgf/8WdVmKfRlri3vfl6a2pJ8Rpa01588IQ++liv4ZUZLaZJeaqPb3n0VUSocBqwxeeeWVQteFhIRg165duseurq7IyDD80dypUydER0frHnt7e+P+/fsGa1u2bInY2FjdY19fXyQkJBis9fX1xaVLl3SPX3zxRVy+fNlgrZeXF+Lj43WPO3bsiFOnThmsha0MGOcCQAYIGbAxGbhdyEeBlQx4u1Z+HQBs+xuIL/zt8v5L1XT/v+VaGn5PLvyjYIq/C6wVMgAy7LyZigv3C293gp8X7K3yP4723r6PM/dTC619q6EnqqjyPwoO3nmAX/9OKbR2PkJQG84AgM24gC24WGjtbHRFPeS/vp34HT/gt0JrZ6Ij/FAjv7+4gVU4V2jt+2gDf7hDBoFDSMCXOFto7VS0RDt4AAB+wR0swOlCayegCbrCEwBwGkkIw5lCaz+GM0Ygf2bvOLIxCIZ/fwFgBpzwBhwBAOeQg974u9DaSXDEZDgBAK5Cja64V2jt/8EBHzwZi0Tkoi3+KrT2NdhjDqoAAB4gD81wt9DaAbDDYlQFAGRAgwZIKrS2J2zwDarrHnviTqG1XaDCWrjoHj+PP5FZSLx5CdbY9OT3AQCaIgnJhUSWJlBiF/6ZaWyDu7hdSAx5HlY4CDfd40D8hWuFRIvaUOA43HWPe+IefiskAlSDHOdRU/d4IP7GiUK+1m0hw7Unv5MAEIr7OFTEV3Uiaun+/w08wK4ivn6voibsnsSbSXiIn4qIx+fgjupPIssMPMK3RcTYX+AGzydfm7ORgmVIK7T2AFzR4Em0WIRULMbjQmt3ogaaPYkW3+Ax5qDwz6kf4YI2T6L/GqThQxT+ObUG1RH4JM7/iHT8F48KrV2Kauj1JKL/jEy8ieRCaxeiCgY9ibwHkYUReFBorak/IxIfuaFNoVUSExYmJSVFABApKSkmaT8nJ0cg/x97Bn9CQkL06u3s7Aqt7dSpk16ti4tLobUtW7bUq/Xy8iq01tfXV6/W19e30FovLy+92pYtWxbx+lxE/glT2p9ORdTa/as2pMj9pl87oJjatKdqQ4upvfdU7VvF1MY9VTulyFpHz59FlbpXRZW6V4Wq6vgiax1qbdLV2lSbWmStvce3ulpbl/8VXeu+7J/aGuFF1tq5LdHV2rktKbLWtka4rtbefVnRtS7/+6fW49sia22qTdXVOtTaVGStqup4Xa2j589F1zqP+qf2uYNF1lo7DdXVOnkfL7JW6dhfV+vsc7boWvtuutoqda8WWWtl10m/VmZbaK3CppVerUxetfBalZ9+rVWtQmvlynp6tXJlvUJrZQoPUaXOP7UKlV/htfKqeu0qbFoVvi9ktnq1VnZFfZ5Ar1Zp363IWmefs//UOvYvstbJ+7iu1tppaJG1js8d/Od97zyq6Fp+RuTXmvgzwqv1WWN9vRdQ3jwhE8KyzjBOTU2Fs7MzUlJS4OTkZPT21Wo1tmzZgm7dulWqQ4Qt+kXj2oEA/PsAgEymedIOdP/V/r9cbv/UuvxJfUN1+f9vr1smRBZksjyDdfn/tYNcrj+p/3SdrS1gayuQkZEKJyd3yJ+cg6XRFH0AQCazhUymrf1not7aGhg3Dhg8+J9aW1tbXbs5OTlQqwuf1LexsYFCoSh1rVqtRk5O4TN5KpUKVk/OtyhNbW5uLrKzC58psLa21v1ul6Y2Ly8PWVmFzyoolUpYW1vrah8/fox9+/YZfC89XavRaJCZWfiBv9LUWllZQaXK/9e/EKLQ2eXS1pbmfV+RPiPUajX279+P/v3768aosM8ILXv7fz4jSlOblZWFvLzCD/yVptbOzg6yJx8I2dnZyM0t/H1fmtrSvO+f5WeEWq02+F6q6J8RJa01lfLmCR4iLAMbGxvY29sbDFj/9vSHgjFrn/5wNGbt0x/QT8vV2AOwR4+xR7F7WXttdYnb1T/rxJi1Kvxzpsw/1Go1du+ORUhICJRKeZG1hlnjn7MBiqm0ti7xG700tUqlskS/Y6WttbKy0n2QGrNWoVCU+HdYW1uS95JcLi9xu6WplclkJqkFTPe+f9afEWq1WhcytQr7jDCkNLVPh05j1qpUqgKvwRi1pnrfl+UzQq1WF/teqqifERUZb9NAJZKrzv9VUalkxVQSERERAxaViDon/1fFhgGLiIioWAxYVCK56vxj/jY2DFhERETFYcCiEsnNyQ9Ytjb8lSEiIioOvy2pRPJytQGLM1hERETFYcCiEslT518lYqNSFFNJREREDFhUItqAZWfLXxkiIqLi8NuSSkSjDVg2vHUaERFRcRiwqEQ0ufk3qLOz4SFCIiKi4jBgUYloA5a9HWewiIiIisOARSUitDNYKgYsIiKi4jBgUYmI3Py/jWVvy4BFRERUHAYsKpnc/D+A6mBXsj8WSkREVJkxYFGxNELDgEVERFQKDFhUrMycHEDkHxp0tLWWuDdERETmjwGLipWWmaP7f0d7BiwiIqLiMGBRsR6n/xOwHDiDRUREVCwGLCpWWqZa9/82Kv7KEBERFYffllQs3SFCRTZkMmn7QkREVBEwYFGx0jKezGBZ5RRdSERERAAYsKgE0rNyAQAyBiwiIqISYcCiYqVn5gcsuZW6mEoiIiICGLCoBDIy8wAAMgYsIiKiEmHAomJlZHEGi4iIqDQYsKhYGVn5M1gKJQMWERFRSTBgUbEyszQAAIUyV+KeEBERVQwMWFQs7TlYDFhEREQlw4BFxcrKEgAAhVIjcU+IiIgqBgYsKlZWTv4MlhVnsIiIiEqEAYuKlflkBsuKM1hEREQlwoBFxcrOyv+vlXWetB0hIiKqIBiwqFhZ2fkzWEprzmARERGVBAMWFSv7yZ8gVFoLaTtCRERUQZhlwPr666/h4+MDGxsb+Pv748iRI1J3qVLLyc7/rzVnsIiIiErE7ALWxo0bMXHiRMyYMQNnz55Fhw4d0KNHD9y6dUvqrlVaOTkyAIC1tcQdISIiqiDMLmAtWrQIo0ePxuuvv46GDRtiyZIl8PT0xNKlS6XuWqWlm8FS8RAhERFRSVhJ3YGn5eTk4PTp05g2bZre8uDgYPzyyy8S9UrfxIUncOx4Nj7feQRymdnlU5O4/psLAEClkrgjREREFYRZBaz79+8jLy8Pbm5uesvd3Nxw9+5dg8/Jzs5Gdna27nFqaioAQK1WQ602/h8n3rjOBg8uDDJ6uxWBk6MwyT41BW0/K0p/KyOOkfnjGFUMHCfTKO/+NKuApSWTyfQeCyEKLNMKDw/HrFmzCizfv38/7OzsjN63er4ZsHH82+jtmjs7+2x0a67G7t27pe5KqURGRkrdBSoGx8j8cYwqBo6TcWVkZJTr+WYVsFxcXKBQKArMVt27d6/ArJbW9OnTMXnyZN3j1NRUeHp6Ijg4GE5OTkbvY1CQGpGRkQgKCoJSqTR6+2QcajXHydxxjMwfx6hi4DiZhvaIWFmZVcCytraGv78/IiMj0b9/f93yyMhI9O3b1+BzVCoVVAZODlIqlSb9RTN1+2QcHCfzxzEyfxyjioHjZFzl3ZdmFbAAYPLkyRg+fDhatmyJNm3aYPny5bh16xbeeOMNqbtGREREVCJmF7AGDx6MBw8e4KOPPkJSUhL8/Pywe/dueHl5Sd01IiIiohIxu4AFAG+99RbeeustqbtBREREVCaV40ZORERERM8QAxYRERGRkTFgERERERkZAxYRERGRkTFgERERERkZAxYRERGRkTFgERERERmZWd4HqzyEEADK/zeECqNWq5GRkYHU1FT+SQIzxnEyfxwj88cxqhg4TqahzRHaXFFaFhewHj9+DADw9PSUuCdERERU0T1+/BjOzs6lfp5MlDWamSmNRoM///wTjo6OkMlkRm8/NTUVnp6eSExMhJOTk9HbJ+PgOJk/jpH54xhVDBwn0xBC4PHjx/Dw8IBcXvozqixuBksul6N27dom346TkxN/kSsAjpP54xiZP45RxcBxMr6yzFxp8SR3IiIiIiNjwCIiIiIyMgasUlKpVJg5cyZUKpXUXaEicJzMH8fI/HGMKgaOk3myuJPciYiIiKTGGSwiIiIiI2PAIiIiIjIyBiwiIiIiI2PAKqWvv/4aPj4+sLGxgb+/P44cOSJ1lyqNw4cPo3fv3vDw8IBMJsO2bdv01gshEBYWBg8PD9ja2iIgIACXLl3Sq8nOzsbbb78NFxcX2Nvbo0+fPrh9+/YzfBWWLTw8HC+++CIcHR3h6uqKfv364erVq3o1HCdpLV26FE2aNNHdM6lNmzbYs2ePbj3Hx/yEh4dDJpNh4sSJumUcJ/PHgFUKGzduxMSJEzFjxgycPXsWHTp0QI8ePXDr1i2pu1YppKeno2nTpvjyyy8Nrl+wYAEWLVqEL7/8ErGxsXB3d0dQUJDuzycBwMSJE7F161Zs2LABR48eRVpaGnr16oW8vLxn9TIsWkxMDMaNG4cTJ04gMjISubm5CA4ORnp6uq6G4ySt2rVrY968eTh16hROnTqFLl26oG/fvrovZ46PeYmNjcXy5cvRpEkTveUcpwpAUIm1atVKvPHGG3rLXnjhBTFt2jSJelR5ARBbt27VPdZoNMLd3V3MmzdPtywrK0s4OzuLb775RgghxKNHj4RSqRQbNmzQ1dy5c0fI5XKxd+/eZ9b3yuTevXsCgIiJiRFCcJzMVdWqVcXKlSs5Pmbm8ePHon79+iIyMlJ06tRJTJgwQQjB91FFwRmsEsrJycHp06cRHBystzw4OBi//PKLRL0irbi4ONy9e1dvfFQqFTp16qQbn9OnT0OtVuvVeHh4wM/Pj2NoIikpKQCAatWqAeA4mZu8vDxs2LAB6enpaNOmDcfHzIwbNw49e/ZE165d9ZZznCoGi/tbhKZy//595OXlwc3NTW+5m5sb7t69K1GvSEs7BobGJyEhQVdjbW2NqlWrFqjhGBqfEAKTJ09G+/bt4efnB4DjZC4uXLiANm3aICsrCw4ODti6dSt8fX11X7wcH+lt2LABZ86cQWxsbIF1fB9VDAxYpSSTyfQeCyEKLCPplGV8OIamMX78ePz22284evRogXUcJ2k1aNAA586dw6NHj7B582aEhoYiJiZGt57jI63ExERMmDAB+/fvh42NTaF1HCfzxkOEJeTi4gKFQlEg+d+7d6/AvyLo2XN3dweAIsfH3d0dOTk5ePjwYaE1ZBxvv/02duzYgaioKNSuXVu3nONkHqytrVGvXj20bNkS4eHhaNq0KT777DOOj5k4ffo07t27B39/f1hZWcHKygoxMTH4/PPPYWVlpdvPHCfzxoBVQtbW1vD390dkZKTe8sjISLRt21aiXpGWj48P3N3d9cYnJycHMTExuvHx9/eHUqnUq0lKSsLFixc5hkYihMD48eOxZcsWHDp0CD4+PnrrOU7mSQiB7Oxsjo+ZCAwMxIULF3Du3DndT8uWLTFs2DCcO3cOderU4ThVBNKcW18xbdiwQSiVSrFq1Spx+fJlMXHiRGFvby/i4+Ol7lql8PjxY3H27Flx9uxZAUAsWrRInD17ViQkJAghhJg3b55wdnYWW7ZsERcuXBBDhgwRNWvWFKmpqbo23njjDVG7dm1x4MABcebMGdGlSxfRtGlTkZubK9XLsihvvvmmcHZ2FtHR0SIpKUn3k5GRoavhOElr+vTp4vDhwyIuLk789ttv4v333xdyuVzs379fCMHxMVdPX0UoBMepImDAKqWvvvpKeHl5CWtra9GiRQvd5edkelFRUQJAgZ/Q0FAhRP6lyzNnzhTu7u5CpVKJjh07igsXLui1kZmZKcaPHy+qVasmbG1tRa9evcStW7ckeDWWydD4ABARERG6Go6TtEaNGqX7DKtRo4YIDAzUhSshOD7m6t8Bi+Nk/mRCCCHN3BkRERGRZeI5WERERERGxoBFREREZGQMWERERERGxoBFREREZGQMWERERERGxoBFREREZGQMWERERERGxoBFREREZGQMWERE5RAfHw+ZTIZz585J3RUiMiMMWERkciNGjIBMJoNMJoNSqYSbmxuCgoKwevVqaDSaUrW1Zs0aVKlSxSj9CggIwMSJE43SFhHR0xiwiOiZ6N69O5KSkhAfH489e/agc+fOmDBhAnr16oXc3Fypu0dEZFQMWET0TKhUKri7u6NWrVpo0aIF3n//fWzfvh179uzBmjVrdHWLFi1C48aNYW9vD09PT7z11ltIS0sDAERHR2PkyJFISUnRzYiFhYUBAL7//nu0bNkSjo6OcHd3x9ChQ3Hv3r1S9dHb2xtz587FqFGj4OjoiOeeew7Lly/Xqzl58iSaN28OGxsbtGzZEmfPni3QzuXLlxESEgIHBwe4ublh+PDhuH//vu41WFtb48iRI7r6hQsXwsXFBUlJSaXqLxGZLwYsIpJMly5d0LRpU2zZskW3TC6X4/PPP8fFixexdu1aHDp0CO+++y4AoG3btliyZAmcnJyQlJSEpKQkTJkyBQCQk5ODjz/+GOfPn8e2bdsQFxeHESNGlLpPCxcu1AWnt956C2+++SZ+//13AEB6ejp69eqFBg0a4PTp0wgLC9NtXyspKQmdOnVCs2bNcOrUKezduxd//fUXBg0aBOCfw5LDhw9HSkoKzp8/jxkzZmDFihWoWbNmWXYjEZkjQURkYqGhoaJv374G1w0ePFg0bNiw0Of++OOPonr16rrHERERwtnZudhtnjx5UgAQjx8/LrSmU6dOYsKECbrHXl5e4tVXX9U91mg0wtXVVSxdulQIIcSyZctEtWrVRHp6uq5m6dKlAoA4e/asEEKIDz/8UAQHB+ttJzExUQAQV69eFUIIkZ2dLZo3by4GDRokGjVqJF5//fViXw8RVSxWEuc7IqrkhBCQyWS6x1FRUZg7dy4uX76M1NRU5ObmIisrC+np6bC3ty+0nbNnzyIsLAznzp1DcnKy7uT5W7duwdfXt8T9adKkie7/ZTIZ3N3ddYcar1y5gqZNm8LOzk5X06ZNG73nnz59GlFRUXBwcCjQ9o0bN/D888/D2toa33//PZo0aQIvLy8sWbKkxP0jooqBhwiJSFJXrlyBj48PACAhIQEhISHw8/PD5s2bcfr0aXz11VcAALVaXWgb6enpCA4OhoODA77//nvExsZi69atAPIPHZaGUqnUeyyTyXRhTQhR7PM1Gg169+6Nc+fO6f388ccf6Nixo67ul19+AQAkJycjOTm5VH0kIvPHGSwiksyhQ4dw4cIFTJo0CQBw6tQp5ObmYuHChZDL8//99+OPP+o9x9raGnl5eXrLfv/9d9y/fx/z5s2Dp6enri1j8/X1xXfffYfMzEzY2toCAE6cOKFX06JFC2zevBne3t6wsjL8EXvjxg1MmjQJK1aswI8//ojXXnsNBw8e1L1mIqr4+G4momciOzsbd+/exZ07d3DmzBnMnTsXffv2Ra9evfDaa68BAOrWrYvc3Fx88cUXuHnzJr777jt88803eu14e3sjLS0NBw8exP3795GRkYHnnnsO1tbWuuft2LEDH3/8sdFfw9ChQyGXyzF69GhcvnwZu3fvxqeffqpXM27cOCQnJ2PIkCE4efIkbt68if3792PUqFHIy8tDXl4ehg8fjuDgYIwcORIRERG4ePEiFi5caPT+EpF0GLCI6JnYu3cvatasCW9vb3Tv3h1RUVH4/PPPsX37digUCgBAs2bNsGjRIsyfPx9+fn744YcfEB4ertdO27Zt8cYbb2Dw4MGoUaMGFixYgBo1amDNmjXYtGkTfH19MW/evALBxxgcHBywc+dOXL58Gc2bN8eMGTMwf/58vRoPDw8cO3YMeXl56NatG/z8/DBhwgQ4OztDLpdjzpw5iI+P193+wd3dHStXrsQHH3zAu8ETWRCZKMlJBURERERUYpzBIiIiIjIyBiwiIiIiI2PAIiIiIjIyBiwiIiIiI2PAIiIiIjIyBiwiIiIiI2PAIiIiIjIyBiwiIiIiI2PAIiIiIjIyBiwiIiIiI2PAIiIiIjIyBiwiIiIiI2PAIiIiIjIyBiwiIiIiI2PAIiIiIjIyBiwiIiIiI2PAIiIiIjKy/wcSVn40gLyQogAAAABJRU5ErkJggg==;" vertex="1" parent="1">
          <mxGeometry width="1455" height="970" as="geometry" />
        </mxCell>
        <mxCell id="AK2-ss-QhYlCPNd1e7_Q-9" value="" style="rounded=1;whiteSpace=wrap;html=1;fillColor=none;arcSize=50;" parent="1" vertex="1">
          <mxGeometry x="330" y="660" width="380" height="60" as="geometry" />
        </mxCell>
        <mxCell id="AK2-ss-QhYlCPNd1e7_Q-10" value="" style="endArrow=none;dashed=1;html=1;dashPattern=1 3;strokeWidth=3;rounded=0;entryX=0.25;entryY=1;entryDx=0;entryDy=0;" parent="1" source="AK2-ss-QhYlCPNd1e7_Q-9" target="AK2-ss-QhYlCPNd1e7_Q-8" edge="1">
          <mxGeometry width="50" height="50" relative="1" as="geometry">
            <mxPoint x="840" y="520" as="sourcePoint" />
            <mxPoint x="890" y="470" as="targetPoint" />
          </mxGeometry>
        </mxCell>
        <mxCell id="AK2-ss-QhYlCPNd1e7_Q-11" value="" style="endArrow=none;dashed=1;html=1;dashPattern=1 3;strokeWidth=3;rounded=0;entryX=0.75;entryY=1;entryDx=0;entryDy=0;exitX=1;exitY=0.25;exitDx=0;exitDy=0;" parent="1" source="AK2-ss-QhYlCPNd1e7_Q-9" target="AK2-ss-QhYlCPNd1e7_Q-8" edge="1">
          <mxGeometry width="50" height="50" relative="1" as="geometry">
            <mxPoint x="300" y="750" as="sourcePoint" />
            <mxPoint x="370" y="542" as="targetPoint" />
          </mxGeometry>
        </mxCell>
        <mxCell id="cRKTQEILxnGgDWBcueT5-2" value="" style="shape=image;verticalLabelPosition=bottom;labelBackgroundColor=default;verticalAlign=top;aspect=fixed;imageAspect=0;image=data:image/png,iVBORw0KGgoAAAANSUhEUgAAAzYAAAI7CAYAAAA+pg4rAAAAOXRFWHRTb2Z0d2FyZQBNYXRwbG90bGliIHZlcnNpb24zLjUuMSwgaHR0cHM6Ly9tYXRwbG90bGliLm9yZy/YYfK9AAAACXBIWXMAAA9hAAAPYQGoP6dpAAB8L0lEQVR4nO3dd3xT9f7H8XfSphNahkAZLWUIyBTxogyZglBAXKDgD1mKl4tc3MIFLkVZKgLuDRUVRWQqKCC0bC5DKuJilbLKkFVaoE2b8/ujJhI66EjTpn09ffRBc84333zPJyfHvHuWyTAMQwAAAADgwcxFPQAAAAAAKCiCDQAAAACPR7ABAAAA4PEINgAAAAA8HsEGAAAAgMcj2AAAAADweAQbAAAAAB6PYAMAAADA4xFsAAAAAHg8gg0AAAAAj0ewAQAAAODxCDYAAAAAPB7BBgAAAIDHI9gAAAAA8HgEGwAAAAAej2ADAAAAwOMRbAAAAAB4PIINAAAAAI9HsAEAAADg8Qg2AAAAADwewQYAAACAxyPYAAAAAPB4BBsAAAAAHo9gAwAAAMDjEWwAAAAAeDyCDQAAAACPR7ABAAAA4PEINgAAAAA8HsEml9avX69evXqpWrVqMplMWrJkSaG+Xnh4uEwmU6afESNGFOrrAgAAAJ6IYJNLycnJatasmd566y23vN727duVkJDg+Fm9erUkqU+fPm55fQAAAMCTEGxyqXv37po0aZLuu+++LOenpqbq+eefV/Xq1RUYGKjbbrtNMTEx+X69SpUqKSQkxPHz7bffqk6dOmrfvn2++wQAAABKKoKNiwwePFibNm3Sl19+qd27d6tPnz7q1q2b9u3bV+C+U1NT9dlnn2nIkCEymUwuGC0AAABQspgMwzCKehCexmQyafHixbrnnnskSQcOHNCNN96oo0ePqlq1ao52d955p1q2bKkpU6YU6PW++uor9e/fX4cPH3bqHwAAAEAG9ti4wI8//ijDMFSvXj2VKVPG8bNu3TodOHBAknTo0KEsLwZw9c8TTzyRZf8ff/yxunfvTqgBAAAAsuFd1AMoCWw2m7y8vLRz5055eXk5zStTpowkqXr16vrtt99y7Kd8+fKZpsXHx+uHH37QokWLXDdgAAAAoIQh2LhA8+bNlZ6erlOnTumOO+7Iso3FYlGDBg3y3PecOXNUuXJl9ejRo6DDBAAAAEosgk0uJSUlaf/+/Y7HcXFxio2NVYUKFVSvXj09/PDDeuSRR/Taa6+pefPm+vPPP7V27Vo1adJEERER+XpNm82mOXPmaODAgfL25q0CAAAAssPFA3IpJiZGHTt2zDR94MCBioqKktVq1aRJkzR37lwdO3ZMFStWVKtWrTRx4kQ1adIkX6+5atUq3XXXXfrjjz9Ur169gi4CAAAAUGIRbAAAAAB4PK6KBgAAAMDjEWwAAAAAeDzOSL8Om82m48ePq2zZsjKZTEU9HAAAAMDjGYahixcvqlq1ajKbXbOvhWBzHcePH1doaGhRDwMAAAAocY4cOaIaNWq4pC+CzXWULVtWUkbRg4KCing0WXjvPemFF6R775Wioop6NE6sVqtWrVqlrl27ymKxFPVwSizq7B7U2T2os3tQZ/egzu5Bnd3HlbVOTExUaGio47u2KxBsrsN++FlQUFDxDDb+/hn/WixSMRuf1WpVQECAgoKC2NAUIursHtTZPaize1Bn96DO7kGd3acwau3KUz24eAAAAAAAj0ewAQAAAODxOBQNAADgGunp6bJarQXqw2q1ytvbW1euXFF6erqLRoZrUWf3yUutLRaLvLy83DSyDAQbAACAvxiGoRMnTuj8+fMu6SskJERHjhzhlhGFiDq7T15rXa5cOYWEhLjtfSHYAAAA/MUeaipXrqyAgIACfSGz2WxKSkpSmTJlXHafDmRGnd0nt7U2DEOXLl3SqVOnJElVq1Z1y/gINgAAAMo4/MweaipWrFjg/mw2m1JTU+Xn58cX7kJEnd0nL7X2/+vKvadOnVLlypXdclga7z4AAIDkOKcmICCgiEcClAz2z1JBz1fLLYINAADAVThPA3ANd3+WCDYAAAAAPB7BBgAAAIDHI9gAAAAg32JiYmQymRQZGVnUQykyxbEG4eHhCg8PL+phuBXBBgAAoAQwmUzX/YmNjc1zv4cOHZLJZNKgQYNcPubC1KFDh2J3vpTNZlNYWJhMJpN+/fXXHNsmJycrKChIvr6+OnPmjJtG6Nm43DMAAEAJMmHChGznhYSEuPz1WrZsqd9++0033HCDy/suacxms4YMGaKJEyfqo48+0owZM7Jt++WXX+rixYt66KGHXHL58dKAYAMAAFCCuPtwqICAADVo0MCtr+nJhg4dqkmTJunTTz/VtGnT5OPjk2W7jz76SJL02GOPuXN4Ho1D0QAAAEqhCxcuaOLEiWrUqJHKli2rMmXKKDw8XH369NHOnTslZYSkWrVqSZI++eQTp8PaoqKiJGV/fon9UDCr1aoXX3xRderUkZ+fn+rXr68PP/zQ0e7tt99W48aN5e/vrxo1aigyMlI2my3TeKOionT//ferdu3a8vf3V1BQkNq0aaO5c+c6tbMfOrdu3TpJzofodejQwant0aNH9cQTT6h27dry9fVVxYoVdffdd2v79u1Z1uzkyZMaOnSoqlSpIn9/f918882OOuRWaGiounXrpj///FNLlizJss0vv/yirVu3qm7duurYsaNSU1P11ltvKSIiQjVr1pSvr6/Kly+vzp07a/ny5bl+7cjISJlMJsXExGSal9Mhh5cuXdLUqVN1yy23qHr16goKClKrVq30xRdf5Pq13YE9NgAAAKWMYRjq1q2btm7dqlatWumxxx6Tt7e3jhw5opiYGG3ZskUtWrRQhw4ddP78eb3++utq1qyZ7rnnHkcfN998c65e66GHHtL//vc/RUREyGKx6Ouvv9awYcPk4+OjHTt2aN68eerZs6fuvPNOffPNN5o4caL8/f31wgsvOPUzfPhwNWzYUO3atVPVqlX1559/avny5Ro8eLB2796t6dOnS5LKlSunCRMmKCoqSvHx8U6H5l19Mv2PP/6orl276uzZs7rrrrt03333OcJG27ZttXjxYkVERDjanzlzRq1bt9bBgwfVtm1btW3bVgkJCRo+fLi6dOmSp/o/9thjWr58uT766CP17ds303x78Hv00UdlMpl09uxZjRo1Sq1bt1aXLl1UqVIlJSQkaOnSperZs6fef/99DRs2LE9jyK3z58+rU6dO2rVrl1q0aKGHH35Y3t7eWrVqlfr3769ffvlFkyZNKpTXziuCDQAAQBYeW/aY9pzek/8ODCk9PV1eXl5SPs5hb1ypsT68+8PrN7xGdoei+fn5afTo0ZKkn3/+WVu3blXv3r0z7TWw2Wy6cOGCpIy9LuHh4Xr99dd188035+swt8OHD2vPnj0qV66cJOmZZ55RgwYNNGrUKJUvX167d+9W9erVJUkTJ05U3bp1NX36dD3zzDPy9v77q+qePXtUp04dp75TUlLUrVs3vfnmm3ryyScVFhamcuXKKTIyUjExMYqPj89yzGlpaerbt6+Sk5O1fv16tW3b1jHv+PHj+sc//qEhQ4bo0KFD8vPzkySNGTNGBw8e1JNPPqmZM2c62j/xxBNq1apVnmrSs2dPVatWTT/88IMOHTrkFLhSUlL06aefymKxOPaelC9fXvHx8apRo4ZTP+fOnVObNm00evRoDRgwQP7+/nkaR248+eST2rVrl6ZPn66nnnpKiYmJCgoKUmpqqu655x5NmTJF999/v5o3b+7y184rgg0AAEAW9pzeo61Htxb1MPJs4sSJWU4PDg52BBv71cICAgIytTObzSpfvrzLxvPyyy87Qo0k1a5dW23btlV0dLRmzJjhCDX2Mfbq1Utz5szRsWPHVLNmTce8a0ONJPn6+upf//qXYmJitHbt2lxfuW358uU6cOCAnnvuOadQI0nVqlXT888/ryeffFJr1qxRjx49ZLVa9fnnn6ts2bKZgtKtt96qhx9+WJ988kmuXluSvLy8NGTIEE2aNEmzZ8/Wiy++6Ji3aNEinT17Vvfff7+qVKniWM5rQ42UEXiGDh2qZ599Vtu3b1e7du1yPYbcOHPmjD777DP94x//0DPPPON0iKCfn59efvllrVy5UvPmzSPYXG39+vV69dVXtXPnTiUkJGjx4sVOuztzsmnTJrVv316NGzfOdBnDhQsXavz48Tpw4IDq1KmjyZMn695773X9AgAAABQDhmFct03Dhg3VvHlzffHFFzpy5IjuvvtutWnTRrfeemu2J7PnV4sWLTJNq1at2nXnHT161CnYHD58WC+//LLWrFmjw4cP6/Lly07PO378eK7HtGXLFkkZ55VktUdn3759kqTff/9dPXr00O+//65Lly7pjjvuUHBwcKb2HTp0yFOwkTIOM5syZYrmzJmjCRMmZOzZ09+HoV17aNkvv/yiV199VevXr1dCQoKuXLniNP/YsWN5ev3c2L59u9LT0yVl7Ak0DEMpKSny9fV1nD8lZdSpOCg2wSY5OVnNmjXT4MGDdf/99+f6eRcuXNAjjzyizp076+TJk07ztmzZogcffFAvvfSS7r33Xi1evFh9+/bVxo0bddttt7l6EQAAADyCl5eX1qxZoxdffFFff/21nn/+eUlSUFCQBg0apClTpigwMNAlr5VVELAfYpbTPPuXZkk6ePCgWrZsqXPnzumOO+5Q165dFRwcLC8vL8XFxWnu3LlKSUnJ9Zjs94VZsGBBju2SkpIkyXFonn0PyrXycxntmjVrqkuXLlq5cqW+//579ejRQwcOHFBMTIzCw8N15513Otpu3bpVnTp1Ulpamjp37qy7775bQUFBMpvNio2N1dKlS/O0/Lllr9P27duzvaCC9HedilqxCTbdu3dX9+7d8/y8xx9/XP3795eXl1emY0RnzZqlLl26aMyYMZIyjo1ct26dZs2aVeyu4gAAAOBO5cuX18yZMzVz5kzt379f69at0/vvv6833nhD58+fz/MeiMI0Y8YMnTlzRnPmzMl0uNnnn3+e6cpo12MPVEuXLtXdd9+d6/bX/hHd7sSJE3l6fbthw4Zp5cqV+uijj9SjRw999NFHMgxDQ4cOldn898WLJ02apMuXLys6OjrTld2mTp2qpUuX5ur17H2mpaVlmnf+/PlM0+zL/dRTT2nGjBmy2WyOc2yuHl9xUWyCTX7MmTNHBw4c0GeffZbl1Ri2bNmip556ymnaXXfdpVmzZmXbZ0pKilPiTUxMlJTxV4Or/3JQXJjT0+WljBP90ovZ+Oz1Ko51K0mos3tQZ/egzu5BnbNmtVplGIZsNptsNpsaVWokXf+ormwZMmRLt8nsZZYpH1cPaFSpUZaXPb6e/Dyndu3aql27th566CGFhIRo8eLFmjNnjqS/z8dJS0vLsm/7NHvtcjMe++Fy9lpfb5790LB77703U/v169dn+fr2Q7usVqvjd7uWLVs6ntuzZ89M47tWvXr1FBAQoNjYWJ07dy7Tnqbo6Ogsx3A9PXv2VEhIiL799lsdPnxYn3zyiby8vDRo0CCnfvbv368KFSqoXbt2mfq3X7o5q1rap9vZz3WKj4/P1Hbbtm2ZluHWW2+V2WzWhg0bZLPZHO9NbpfT/pys3oPC2P54bLDZt2+fRo8erQ0bNjhdMeNqJ06cyLTLsEqVKjmm6qlTp2Z50t2qVauyPMGuqNX65Rc1lZSQkKAdK1YU9XCytHr16qIeQqlAnd2DOrsHdXYP6uzM29tbISEhSkpKUmpqqqa3m17UQ3L8gdXVz4mPj9elS5d00003OU1PSEhQSkqKgoODHf14eXnJZDLp0KFDWfZ96dIlSRl/HL56vn2vQFbPsX+pTUpKyjTf/gfmS5cuOebZz7tZvny50yWY16xZo48//liSlJqa6tRXUFCQJOm3335TWFiY02t07NhRtWrV0jvvvKOWLVuqa9eumca4bds2NW7c2PH9r0+fPvrkk080duxYTZkyxdFu165dmjdvXpY1yI2HHnpIs2bN0kMPPaSEhAR1795dZcqUceqnRo0a+uOPP7R582Y1btzYMf3TTz/VqlWrJElXrlxxeo49eFw9rVGjRpKkjz/+WL1793Z8hz569KjjAgZWq9XxHD8/P/Xp00fz58/X+PHj9dRTT8nb21sXL1509BkXFyez2ex0PpRdamqqLl++rPXr12faS2Rfb1zJI4NNenq6+vfvr4kTJ6pevXo5trX/lcHOMIxM0642ZswYPf30047HiYmJCg0NVdeuXR0fkOLEHBcnSapatarTB704sFqtWr16tbp06SKLxVLUwymxqLN7UGf3oM7uQZ2zduXKFR05ckRlypRxXOK3IAzD0MWLF1W2bNkcv3u42tWXIr5W7969dfPNN+vAgQO6//771aJFCzVq1EjVqlXT6dOntWzZMlmtVr3wwguO7z1BQUG67bbbtHnzZo0YMUI33nijvLy81KtXLzVt2tTxxd/X19fpu5L9S3NW35/s612ZMmUyzff19ZWUccU2+7xRo0Zp3rx5GjJkiO677z5Vr15de/bs0cqVK9WnTx999dVX8vHxceqra9euWrJkiQYNGqRu3brJ399fYWFhGjBggKSMq491795dDz74oFq3bq1mzZopICBAR44c0Y4dO3Tw4EEdO3bM0ecrr7yiDRs26N1339XPP/+sNm3aKCEhQV999ZW6d++ub775JlMNcmPEiBF6/fXXHRc0GD58eKY+nn76aa1Zs0YRERHq06ePgoODtXPnTm3cuFH333+/Fi5cKD8/P6fn2Q8Vu3pax44d1aFDB8XExKhr167q2LGjTp48qW+//VZdu3bVggULZLFYnJ7z3nvvKT4+XlOmTNGCBQvUsmVLVa9eXQkJCfr999+1fft2ff7552rSpEmmZbty5Yr8/f3Vrl27TJ+p/IT26/HIYHPx4kXt2LFDu3bt0hNPPCHp711d9hsGderUSSEhIZn2zpw6dSrbE7+kjA+T/QN1NYvFUjw3/n/t1jObzTIXx/GpGNeuhKHO7kGd3YM6uwd1dpaeni6TyZTx/1QXnD9g/4u5vU93ufrSwdeqVauWbrnlFrVs2dJx7vHKlSt17tw5VapUSS1atNC///3vTOc9f/rpp3rqqaf0/fff64svvpBhGAoNDdXNN9/sWLbsljOrafagl1Wts5p38803Kzo6WuPGjdN3332ntLQ0NWvWTIsWLVJQUJC++uqrTK8/bNgwHTlyRF9++aVeffVVpaWlqX379ho4cKCjz59++kkzZszQt99+q6ioKJnNZlWtWlXNmzfXxIkTVblyZUeflStX1qZNm/Sf//xH33zzjXbs2KH69evr3XffVXh4uL755pt8vdd169ZV586d9cMPP6hGjRqKiIjI1EdERIS++eYbTZo0SV999ZW8vLzUsmVLRUdH6+DBg1q4cGG26+2105YsWaLnn39eixcv1ltvvaUbb7xRr7zyiiPYXLsM5cqV07p16/TBBx9o3rx5WrZsmVJSUlSlShXdeOONmjlzpu66665sX9tkMmW5rSmMbY/JyM01Ad3MZDLleLlnm82mX3/91WnaO++8o7Vr1+rrr79WrVq1FBgYqAcffFAXL17UiqsO0erevbvKlSuX64sHJCYmKjg4WBcuXCiWe2z05pvSv/8t9e0rzZ9f1KNxYrVatWLFCsedhlE4qLN7UGf3oM7uQZ2zduXKFcXFxalWrVou2WNT3E+0Limos/vktdY5faYK4zt2sdljk5SUpP379zsex8XFKTY2VhUqVFBYWJjGjBmjY8eOae7cuTKbzU7HF0oZKdrPz89p+qhRo9SuXTu9/PLL6t27t5YuXaoffvhBGzdudNtyAQAAACh8xSbW7tixQ82bN3fctfTpp59W8+bN9d///ldSxslshw8fzlOfrVu31pdffqk5c+aoadOmioqK0vz587mHDQAAAFDCFJs9Nh06dMjxTrlRUVE5Pj8yMjLLO8c+8MADeuCBBwo4OgAAAADFWbHZYwMAAAAA+UWwAQAAAODxCDYAAAAAPB7BBgAAAIDHI9gAAAAA8HgEGwAAAAAej2ADAAAAwOMRbAAAAAAPFB4ervDw8KIeRrFBsAEAACgBTCaTTCZTUQ+jyEVGRjpqYf8xm80KDg5W69at9fbbbystLa2oh4lC4F3UAwAAAABcrX379urQoYMkKS0tTUeOHNGyZcv0xBNPaPPmzfr888+LdoBwOYINAAAASpwOHTooMjLSaVp8fLwaNWqkefPmafLkyRzGVcJwKBoAAEApc+XKFU2dOlVNmjRRQECAgoKCdMcdd+jLL790apeUlCQfHx+1bdvWaXpycrJ8fHxkMpn06aefOs175513ZDKZNHv2bKfpZ8+e1ZgxY3TTTTfJ399fwcHB6ty5s1atWpVpfFFRUTKZTIqKitLy5cvVrl07BQUFFfhQu5o1a6p+/fqSpNOnT2eav2PHDt13332qXLmyfH19VbNmTQ0fPlzHjx/P1LZDhw7Zjufq8V/Nfk7MpUuX9NxzzyksLEy+vr6qW7eupk2bJsMwMvVlGIbeeustNWrUSH5+fqpevbpGjBihCxcu5KMCJRt7bAAAAEqR1NRUde3aVRs2bFDDhg01YsQIXbp0SQsWLFC/fv20a9cuvfzyy5KkMmXKqGXLlvrf//6npKQklSlTRpK0YcMGWa1WSdKaNWs0YMAAR/9r166VJHXu3NkxLT4+Xh06dNChQ4fUrl07de/eXUlJSfr222/VrVs3vffeexo2bFimsS5YsEDff/+9IiIi9M9//lNxcXEFWvYjR47ojz/+UNmyZdWgQQOneUuXLlWfPn1kMpn0wAMPKCwsTDt27NB7772npUuXauPGjapdu3aBXl+SrFarunbtquPHj6t79+7y9vbWkiVLNGbMGF2+fFkTJ050av/kk0/qjTfeUNWqVTVs2DBZLBYtXbpU27ZtU2pqqnx8fAo8ppKCYAMAAJCFxx6T9uwpSA8mpaeXkZdX/vYyNG4sffhhQV4/a9OnT9eGDRvUs2dPLV68WN7eGV8H//vf/+of//iHXnnlFfXq1cuxl6ZTp07atGmT1q9fr4iICEkZYcbb21tt27bVmjVrHH3bbDbFxMSodu3aqlmzpmP6wIEDFR8fr6+++kp9+vRxTD9//rw6dOigUaNG6e6771ZISIjTWL/77jutWLFC3bp1y/NyxsTEOA5FS0tL07Fjx7Rs2TL5+/vro48+UtmyZR1tk5KSNGTIENlsNq1fv16tW7d2zJs6dar+85//6PHHH9fq1avzPI5rHT9+XM2aNdPq1avl7+8vSZowYYLq1aunWbNmady4cbJYLJKkzZs364033lCdOnW0bds2VahQQZI0efJkdezYUQkJCU51Lu0INgAAAFnYs0faurUgPZhUHL9qzZ49WyaTSa+99poj1EhSlSpVNH78eA0bNkyzZ892BJvOnTvrpZde0po1a5yCTcuWLXXvvfdq1KhR2rt3r+rVq6fY2FidOXNG9913n6Pfn376SevWrVOfPn2cQo0klStXThMnTtQ999yjhQsXasSIEU7z77777nyFGklat26d1q1b5zTN29tbQ4cO1S233OI0fcmSJTp79qwefvhhp1AjSc8++6zef/99/fDDD4qPj3dJkHjzzTcdoUaSKleurN69e2vu3Ln6448/1LhxY0nSnDlzJEljx451hBpJ8vPz09SpU9WxY8cCj6UkKX6fNgAAABSKixcv6sCBA6pRo4bq1auXaf6dd94pSfrxxx8d01q1aiV/f3/HIWZnz57VTz/9pLFjxzoON1uzZo3q1avnaNOpUyfH87ds2SIpY+/MtSfzS3+f6/L7779nmnfbbbflZzElZewFsb+ezWZTQkKClixZomeeecZxKFdoaKgkadeuXZKUZVCwWCxq37695s6dq127dhU42JQrV0516tTJNN0+lnPnzjmm2d+H9u3bZ2p/xx13OAVTEGwAAABKDfsJ59ce8mVXtWpVp3aSHBcP+OGHH/Tnn39q3bp1stls6ty5sxo1aqSQkBCtWbNGw4cP15o1a2QymZyCzZkzZyRJq1evzvFQrqSkpEzTshtnXpnNZsdJ9wkJCZo8ebImTZqk999/32l581KX/AoODs5yuj2kpKenO6bZX69KlSqZ2nt5ealixYoFHk9JwlXRAAAASgn7l+oTJ05kOT8hIcGpnV2nTp1kGIaio6O1Zs0a+fv7q1WrVo550dHRSklJ0YYNG9SoUSNVrlw502u+/vrrMgwj2x/7YVdXK4wbjtr3Am3bti3TGPNSF7M542t0Vjf7PH/+vEvGan+9kydPZpqXnp7uCI3IwB6bkiKLywMCAID8++s0hwIwlJ6eLi8vL2Wcb+Pu18+sbNmyqlOnjg4ePKh9+/bpxhtvdJofHR0tSZnOQbEfcrZ27VpFR0frjjvucFyNq3Pnzpo3b57effddJScnO10NTZJuv/12SRlXUvv3v//t+oXKI/uhXjabzTGtefPmkjIuODB06FCn9mlpadq4caMk57qUL19eUsaV1mrVquX0nB07drhkrLfccot+/PFHrVu3LtMV2TZs2JBlqCrNCDaerhD+kgEAAAp+RTKbzVBiYpKCgoJkNhef/18PGTJEY8eO1XPPPaeFCxf+FbykP//8Uy+99JKjzdVatGihcuXKadGiRTp16pTTfHuQmTp1qiTn82sk6dZbb9Udd9yhRYsWafbs2Zn6lqSff/5ZVapUcdrTUxhSUlL0zjvvSMq4D43dPffcowoVKuiLL77QiBEjHGFMkmbNmqWDBw/qzjvvVFhYmGP6bbfdpkWLFunDDz/UlClTHNPXrFmjL774wiXjHTRokD766CNNnjxZvXv3dlxA4MqVKxozZoxLXqMkIdgAAACUIIMGDcp23jvvvKNnn31W3333nZYuXapmzZopIiLCcR+bU6dO6fnnn890Q06z2az27dtr6dKlkpzvUVOzZk3VqVNHBw4ckJeXV5Ynus+bN0+dOnXS0KFD9cYbb+i2225TuXLldPToUe3evVt79uzRli1bXBpsrr7cs2EYSkhI0HfffaejR4+qdu3aGjt2rKNtmTJlNHv2bPXp00ft27dXnz59FBYWpp07d2rVqlUKCQlxnI9jN3jwYE2fPl1Tp07VTz/9pIYNG2rv3r367rvvdO+992rhwoUFXoY2bdpo5MiRevPNN9W4cWM98MADjvvYlC9f3nHuDzIQbAAAAEqQTz75JNt5s2bNUkBAgFavXq0ZM2Zo3rx5evPNN+Xt7a1mzZpp1qxZ6tevX5bP7dy5s+MLtf3QravnHThwQC1atMjy5PgaNWpo586devPNN7Vw4UJ9/vnnSk9PV0hIiBo2bKiRI0eqSZMmBVvwa1x7ueeAgADVrVtXAwcO1LPPPqty5co5te/du7c2bdqkKVOmaOXKlbpw4YJCQkL0z3/+U+PHj1e1atWc2leqVEkxMTF67rnntH79eq1bt0633nqrVq9erbi4OJcEGynj3KR69erp7bff1vvvv6+KFSvq3nvv1ZQpU9SsWTOXvEZJYTIMTs7ISWJiooKDg3XhwgUFBQUV9XAye+staeRIqU8f6auvino0TqxWq1asWKGIiAjHjabgetTZPaize1Bn96DOWbty5Yri4uJUq1Yt+fn5Fbg/m82mxMTEvw5F43pNhYU6u09ea53TZ6owvmPz7gMAAADweAQbAAAAAB6PYAMAAADA4xFsAAAAAHg8gg0AAAAAj0ewAQAAAODxCDYAAAAAPB7BBgAAAIDHI9gAAAAA8HgEGwAAAMADHTp0SCaTSYMGDSrqoRQLBBsAAAAPFxMTI5PJpA4dOmTbxv4lODw83G3jKiodOnSQyWRy+vH29laVKlXUo0cPfffdd0U9RBQC76IeAAAAAFAYBg4c6Ahyly9f1h9//KHly5drxYoVev/99zVs2LCiHSBcimADAACAEmnQoEGZ9mItXLhQDzzwgKZMmUKwKWE4FA0AAKAUi4yMlMlkUkxMjD755BM1b95c/v7+qly5soYMGaITJ05keo79UK+UlBSNGzdOtWrVkq+vr+rUqaOJEycqNTU1y9f6/fffNWjQIIWGhsrX11dVqlRR//799ccff2RqO2jQIJlMJh08eFCzZs1SkyZN5O/vn+PhdrnRtWtXSdLp06eznD9//nzdcccdCg4Olr+/vxo3bqwpU6boypUrmdrmdPifffyHDh1yTLv6nJhDhw7poYce0g033CA/Pz+1aNFCy5Yty7Kvixcv6umnn1aNGjXk5+enBg0a6LXXXpPNZsvbwpdw7LEBAACAZs6cqVWrVunBBx9Ut27dtHHjRs2ZM0cxMTH63//+p0qVKmV6Tt++fbV9+3Y98MADslgsWrp0qSIjI7Vjxw4tW7ZMJpPJ0fb777/Xfffdp7S0NPXs2VN169bV0aNHtWjRIi1fvlzR0dG65ZZbMr3Gv//9b23cuFE9evRQRESEvLy8CrScP/zwgySpZcuWmea98MILeuWVV1SpUiU9/PDDCgwM1IoVKzR27Fh9//33+uGHH+Tj41Og15ek+Ph4tWzZUrVr19aAAQN09uxZzZ8/X/fcc49Wr16tzp07O9qmpKSoc+fO2r59u5o1a6aHH35Y58+f16RJk7Ru3boCj6UkIdgAAABA3333nf73v/+pefPmjmlPPfWUZs2apdGjR+vjjz/O9JzffvtNv/zyi8qXLy9Jmjx5sjp27Khvv/1Wn332mQYMGCBJOnfunPr166fAwEBt2LBBDRo0cPTxyy+/6LbbbtPQoUO1a9euTK+xa9cu7dq1S7Vq1crzMkVFRSkmJkaSdOXKFe3du1fffvutGjdurHfffdep7aZNm/TKK6+oZs2a2rZtmypXrixJmjp1qnr37q0VK1bo1Vdf1dixY/M8jmvFxMQoMjJSEyZMcEzr37+/unXrpunTpzsFm9dee03bt2/XfffdpwULFshszjjgavTo0WrRokWBx1KSEGwAAACy8thj0p49+X66SVKZ9HSZ8ruHoXFj6cMP8/36eTVgwACnUCNlHKY2Z84czZs3T++88458fX2d5o8fP94RaiTJz89PU6dOVceOHTV79mxHsJk7d67Onz+vt99+2ynUSFKjRo302GOPadasWfrll1/UqFEjp/nPPfdcvkKNJH3yySeZplWoUEEPPvhgpqvDzZkzR5I0btw4R6iRJG9vb82YMUPff/+9Pv74Y5cEm/DwcI0bN85p2l133aWwsDBt374907jMZrNeeeUVR6iRpFq1aunf//63Jk6cWODxlBQEGwAAgKzs2SNt3Zrvp5vkWV+02rdvn2lacHCwbr75Zq1bt06//fabbr755us+54477pC3t7fT3pctW7ZIkmJjYxUZGZnpOXv37pWUcQ7OtcHmtttuy+uiOERHRzvOgbFarTp06JBmzZql8ePHa9WqVYqJiXGEBft4O3bsmKmf+vXrq0aNGoqLi9P58+dVrly5fI9Jkm6++eYsD6kLDQ111ErKOLdm//79Cg0NVZ06dTK179ChA8HmKp70eQMAAEAW7F/OczqZ3D7v6r/6X61KlSpZTg8JCZEkXbhwIVfP8fLyUsWKFXXq1CnHtDNnzkiSPrzOHqikpKRsX7+gLBaLbrzxRr399tv66aeftGHDBs2fP1/9+vWT9PfyZfd6VatW1eHDh3XhwoUCB5vg4OAsp3t7ezu9h/YxXe+9QQauigYAAODh7F+U7QEiK3/++ackZful/OTJk1lOt18VLasv41k9Jz09XWfOnFFQUFCm8f30008yDCPbn4EDB2bq7+oLELiKfS/Qtm3bMo0xq6vASVJCQoJTO/vY0tLSsmx//vz5Ao/T/lrXe2+QgWADAADg4erXry9fX1/t3bs323BjP8SpadOmWc7P6gpbFy5cUGxsrPz8/HTTTTfl6jkbNmxQWlqa0/k6t99+u2NecXDu3DlJznu47OO1X2zgavv379fRo0dVq1Ytp2BYvnx5HTlyJFP79PR0xcbGFnicZcuWVd26dXXs2DEdOHAg0/ysxlqacSgaAABAVho3LtDTDWV8wfXy8lK+9jnk4fX9/PzUt29fffrpp3ruuef08ccfO+3pOHr0qF599VVJynKviCR9+umneuKJJ5wCSWRkpC5cuKDBgwdnunCAJL300kvq2bOn4wICV65c0ZgxYyRJgwcPdrQbPHiwJk+erIkTJ+of//hHpkst22w2rV+/vsD3qMmNQ4cOadGiRZLk9HpDhgzRxx9/rEmTJunuu+92XN46PT1dzz77rGw2m4YOHerU12233abvvvtOq1atctwfR5ImTZqk+Ph4l4x38ODBGjt2rF544QV99dVXjkMJ4+Li9MYbb7jkNUoKgg0AAEBWCnhFMsNmU1JiooKCgmTK5rwWV5oxY4a2bdumOXPmaMuWLerSpYuCgoIUHx+vpUuX6uLFi3r22WezPDlekiIiItSmTRv17dtXVatW1caNG7Vx40aFh4dr2rRpWT6nYcOGatSokdN9bA4cOKAePXo4rogmSRUrVtTXX3+te++9V7fffrs6d+6sRo0ayWw26/Dhw9qyZYvOnDmT5U0wC+Lqyz1brVbFx8dryZIlSk5OVq9evXTPPfc42rZu3VrPP/+8XnnlFTVu3FgPPPCAAgMD9d1332nPnj1q27atnnvuOaf+n332Wa1cuVK9e/fWgw8+qAoVKmjz5s2Ki4tThw4dXLJH5ZlnntGSJUu0cOFC3XLLLbrrrrt04cIFzZ8/X+3atcv2pp6lEcEGAACgBLjhhhu0fft2vfHGG1q8eLGioqJ0+fJlVahQQe3atdPjjz+uXr16Zfv8J598Uvfee69mzpyp+fPnq0yZMho0aJCmTJnidPnjq82fP18vvfSSPv/8cx0/flzVq1dXZGSkRo8enencmM6dO2v37t2aPn26Vq5cqQ0bNsjHx0fVqlVTp06ddP/997u0HpLz5Z5NJpOCg4PVvHlzDRgwQEOHDs00xpdfflnNmzfXW2+9pblz58pqtapOnTqaNGmSnnnmmUw35+zUqZOWLFmiiRMn6ssvv1RgYKC6dOmi+fPnO92jpiB8fX31ww8/KDIyUvPnz9frr7/uuFz0vffeS7C5mlFMrFu3zujZs6dRtWpVQ5KxePHiHNtv2LDBaN26tVGhQgXDz8/PqF+/vjFjxoxM7WbOnGnUq1fP8PPzM2rUqGE8+eSTxuXLl3M9rgsXLhiSjAsXLuR1kdzjzTcNQzKMPn2KeiSZpKamGkuWLDFSU1OLeiglGnV2D+rsHtTZPahz1i5fvmz8+uuvefqekJP09HTj3LlzRnp6ukv6KywTJkwwJBnR0dG5fk779u2N4vI10lPqXBLktdY5faYK4zt2sdljk5ycrGbNmmnw4MG5SuyBgYF64okn1LRpUwUGBmrjxo16/PHHFRgYqGHDhkmSPv/8c40ePVqzZ89W69attXfvXg0aNEiSNHPmzMJcHAAAAABuVGyCTffu3dW9e/dct2/evLnTyW3h4eFatGiRNmzY4Ag2W7ZsUZs2bdS/f39Hm379+jld2g8AAACA5ys2waagdu3apc2bN2vSpEmOaW3bttVnn32mbdu2qWXLljp48KBWrFiR7dVAJCklJUUpKSmOx4mJiZIyTjizWq2FtwD5ZE5Pl5cyriaSXszGZ69XcaxbSUKd3YM6uwd1dg/qnDWr1SrDMGSz2XK80WVuGYbh+NcV/RUW+zjzs9zFYbk8pc4lQV5rbbPZZBiGrFarvLy8nOYVxvbHZNhHWIyYTCYtXrzY6UoV2alRo4ZOnz6ttLQ0RUZGavz48U7z33zzTT3zzDMyDENpaWkaPny43nnnnWz7i4yM1MSJEzNNnzdvngICAvK8LIWt1vLlavrhhzrWurV2PP98UQ8HAACP5e3trZCQEIWGhmY6SRxA3qWmpurIkSM6ceJEphuZXrp0Sf3799eFCxecbuZaEB6/x2bDhg1KSkrS1q1bNXr0aNWtW1f9+vWTlHHTosmTJ+udd97Rbbfdpv3792vUqFGqWrVqpgBkN2bMGD399NOOx4mJiQoNDVXXrl1dVnRXMh86JEmqWrWqIiIiinYw17BarVq9erW6dOkii8VS1MMpsaize1Bn96DO7kGds3blyhUdOXJEZcqUkZ+fX4H7MwxDFy9eVNmyZTNdfQuuQ53dJ6+1vnLlivz9/dWuXbtMnyn7UVGu5PHBplatWpKkJk2a6OTJk4qMjHQEm/Hjx2vAgAF69NFHHW2Sk5M1bNgwjR071nGDo6v5+vpmeQMqi8VSPDf+f+3WM5vNMhfH8akY166Eoc7uQZ3dgzq7B3V2lp6eLpPJlPH/VBfcd8Z+qI69TxQO6uw+ea212WyWyWTKcltTGNueEvXuG4bhdH7MpUuXMhXdy8tLhmGoGB6BBwAAACCfis0em6SkJO3fv9/xOC4uTrGxsapQoYLCwsI0ZswYHTt2THPnzpUkvf322woLC1ODBg0kSRs3btT06dM1cuRIRx+9evXSjBkz1Lx5c8ehaOPHj9fdd9+d6QQmAAAAAJ6r2ASbHTt2qGPHjo7H9vNcBg4cqKioKCUkJOjw4cOO+TabTWPGjFFcXJy8vb1Vp04dTZs2TY8//rijzbhx42QymTRu3DgdO3ZMlSpVUq9evTR58mT3LRgAAACAQldsgk2HDh1yPDwsKirK6fHIkSOd9s5kxdvbWxMmTNCECRNcMUQAAAAAxVSJOscGAAAAJVd4eLjCw8OLehgOkZGRMplMiomJKeqhQAQbAACAEmfy5MkymUwymUz6448/XNJncQsVOfnPf/4jk8mkF1544bptBw8eLJPJpLfeessNI0NhItgAAACUIIZh6OOPP3bcZ+Sjjz4q4hG532OPPSaTyaRPPvkkxzvcX7x4UQsWLJC/v7/+7//+z40jRGEg2AAAAJQgq1atUlxcnB599FFVrlxZn3zyiVJTU4t6WG5Vq1Yt3XnnnTp58qS++eabbNvNmzdPycnJeuCBB1SuXDn3DRCFgmADAABQgnz44YeSpEcffVQPP/ywTp8+rSVLlmTb/ujRo/r3v/+tG2+8UX5+fqpQoYJatmypl156SZIUExMjk8mk+Ph4xcfHOw5xM5lMGjRokCTp0KFDTo+v1aFDh0x3qk9NTdVbb72liIgI1axZU76+vipfvrw6d+6s5cuXF7gOw4YNk5TzHit7rexto6OjNWzYMDVs2FBBQUHy9/dXo0aNNGHCBF2+fDlXr5ufWtitXLlSERERuuGGG+Tr66s6deroueee0/nz53P12qVdsbkqGgAAAArm5MmTWrZsmW666Sa1bNlS/v7+mjlzpj744AP17ds3U/sdO3borrvu0tmzZ9W+fXvdd999Sk5O1q+//qrIyEiNHz9e4eHhmjBhgmbNmiVJevLJJx3Pv/nmm/M91rNnz2rUqFFq3bq1unTpokqVKikhIUFLly5Vz5499f777zsCR3707t1blStX1sqVK3XkyBGFhoY6zY+NjdXOnTt10003qW3btpKkl19+Wb///rtat26tHj166PLly9q0aZNefPFFRUdHa+3atfL2Lpyvzy+++KImTJigihUrqkePHqpcubJ2796t6dOna8WKFdq8ebOCg4ML5bVLCoINAABACTFnzhxZrVYNHDhQktSkSRM1b95ca9eu1cGDB1W7dm1H29TUVPXp00dnz57VvHnz1K9fP6e+jhw5IinjogGRkZGOW29ERka6ZKzly5dXfHy8atSo4TT93LlzatOmjUaPHq0BAwbI398/X/1bLBYNGjRIr7zyiubMmaP//ve/TvPte2see+wxx7R33nlHtWrVyrRH5T//+Y+mTp2qr7/+Wg899FC+xpOT6OhoTZgwQW3atNHy5cudAkxUVJQGDx7sFC6RNQ5FAwAAuI5WrVrl+adNmzbq2rWr2rRpk2ne66+/7vIxGoahjz76SF5eXhowYIBj+uDBgx3zrvbNN9/o0KFDuvvuuzOFGkmZ9nC4mq+vb6ZQI2UEnqFDh+rcuXPavn17gV7DfhGB2bNny2azOaZfvnxZ8+bNk6+vrx555BHH9Nq1a2d5mNgzzzwjKeP8pcLwxhtvSJI++OCDTHtlBg0apJtvvlnz5s0rlNcuSdhjAwAAcB1bt251aX+tWrVyaX+StHbtWh04cEDdunVTtWrVHNP79++vZ599VnPmzNGLL77oOJTKvkzdu3d3+Vhy65dfftGrr76q9evXKyEhQVeuXHGaf+zYsQL1X7duXXXo0EHR0dFavXq17rrrLknSggULdP78efXr108VK1Z0tE9OTtbrr7+uxYsXa+/evbp48aLTDeQLOp7sbNmyRRaLRV999VWW81NTU3X69GmdOXPGabxwRrABAAAoAT744ANJynTSesWKFdWrVy8tXLhQ33zzje69915JcpyQXr16dXcO02Hr1q3q1KmT0tLS1LlzZ919990KCgqS2WxWbGysli5dqpSUlAK/zrBhwxQdHa2PPvrIEWzse6+uPgzNarWqU6dO2rZtmxo3bqwHH3xQlSpVksVikSRNnDjRJePJypkzZ5SWlqaJEyfm2C4pKYlgkwOCTUlx1V8TAABA6XL1lc8eeuihbM8D+eCDDxzBxn55Y1fshTCbM85uSEtLy3J+Vlf1mjRpki5fvqzo6Gh16NDBad7UqVO1dOnSAo9Lku677z7dcMMNWrZsmU6fPq2zZ89qw4YNjr05dkuXLtW2bds0cOBAx/lEdgkJCdcNHXb5qUVwcLBsNpvOnj2bq9dA1gg2AAAAHs5+r5oWLVpke6WypUuXatWqVYqPj1fNmjV1++23S8q4xPA///nP676Gl5dXtvfDKV++vKS/LzhwtcTERO3duzfT9P3796tChQqZQo0krVu37rrjyS0fHx8NHDhQr732mubOnasTJ05I+vv8m6vHI0n3339/gcaTn1rcfvvtWr58uX755Rc1atQo168FZwQbT5fNddABAIDr2ENAXqWnp8vLyyvT9Jo1axZ0SE7sh1a98847atmyZZZtKlWqpGnTpunjjz/Wiy++qF69eik8PFxLlizRV199lely0MeOHXM6TK1ixYravXu3rly5Ij8/P6e2ZcuW1U033aRNmzbp119/VcOGDSVlLP/TTz+d5T1gwsPD9ccff2j37t1q2rSpY/rHH3+slStX5q8Q2Xjsscf02muv6cMPP9TZs2cdV0y7djxSxhXKevXq5Zh+8OBBvfDCC7l+rfzU4qmnntLy5cv12GOP6euvv3Y6R0rKOPfn559/zvd6WFoQbAAAAK5jy5YteX6OzWZTYmKi47yRwhITE6M//vhDTZo0yTbUSBk37Hz55Zc1e/ZsTZgwQT4+PlqwYIG6du2qBx98UO+9955atmypy5cv67ffftPatWudDqfq3Lmztm/fru7du+uOO+6Qj4+PmjVr5ggBL7zwggYNGqQ2bdqoT58+8vPzU3R0tKxWq5o1a6affvrJaTxPPvmkVq5cqbZt26pv374KDg7Wjh07tHHjRj3wwAP6+uuvXVaj+vXrq127dlq/fr0k6YEHHlDlypWd2vTq1Ut169bVzJkztWfPHjVv3lyHDx/Wt99+qx49eujw4cO5fr281qJz586aNm2axowZoxtvvFERERGqVauWkpKSFB8fr3Xr1qlt27b6/vvvC16MEozLPQMAAHgw+/1YHn300Rzb1alTRx06dNCxY8e0YsUKSdKtt96q2NhYDR8+XHFxcZoxY4Y+++wzXbhwIdM5JePGjdM///lP7du3T1OmTNH48eO1cOFCx/yBAwdq9uzZqlatmj755BN99dVXat26tTZt2uQ4n+dq3bp10zfffKOGDRtq/vz5+vjjj+Xr66vo6Gj16NGjgFXJ7OqbfV590QC7wMBArV27Vv3799cvv/yiN954Q7t379b48eP12Wef5em18loLKSMMrV+/Xj169NCmTZs0a9YsLViwQMeOHdOwYcM0adKkPI2hNDIZBmed5yQxMVHBwcG6cOGCgoKCino4mb39tvTEE9IDD0gLFhT1aJxYrVatWLFCERERjiuKwPWos3tQZ/egzu5BnbN25coVxcXFqVatWpkOtcoPd+2xKe2os/vktdY5faYK4zs27z4AAAAAj0ewAQAAAODxCDYAAAAAPB7BBgAAAIDHI9gAAAAA8HgEGwAAAAAej2ADAABwFZvNVtRDAEoEd3+WvN36agAAAMWUj4+PzGazjh8/rkqVKsnHx0cmkynf/dlsNqWmpurKlSvcX6UQUWf3yW2tDcNQamqqTp8+LbPZLB8fH7eMj2ADAAAgyWw2q1atWkpISNDx48cL3J9hGLp8+bL8/f0LFJCQM+rsPnmtdUBAgMLCwtwWOAk2AAAAf/Hx8VFYWJjS0tKUnp5eoL6sVqvWr1+vdu3ayWKxuGiEuBZ1dp+81NrLy0ve3t5uDZsEGwAAgKuYTCZZLJYCf0n28vJSWlqa/Pz8+MJdiKiz+xT3WnMgIgAAAACPR7ABAAAA4PEINgAAAAA8HsEGAAAAgMcj2AAAAADweAQbAAAAAB6PYAMAAADA4xFsAAAAAHg8gg0AAAAAj0ewAQAAAODxCDYAAAAAPB7BBgAAAIDHI9gAAAAA8HgEGwAAAAAej2ADAAAAwOMRbAAAAAB4PIINAAAAAI9HsAEAAADg8Qg2AAAAADwewQYAAACAxys2wWb9+vXq1auXqlWrJpPJpCVLluTYfuPGjWrTpo0qVqwof39/NWjQQDNnzszU7vz58xoxYoSqVq0qPz8/3XTTTVqxYkUhLQUAAACAouBd1AOwS05OVrNmzTR48GDdf//9120fGBioJ554Qk2bNlVgYKA2btyoxx9/XIGBgRo2bJgkKTU1VV26dFHlypX19ddfq0aNGjpy5IjKli1b2IsDAAAAwI2KTbDp3r27unfvnuv2zZs3V/PmzR2Pw8PDtWjRIm3YsMERbGbPnq2zZ89q8+bNslgskqSaNWu6duAAAAAAilyxCTYFtWvXLm3evFmTJk1yTFu2bJlatWqlESNGaOnSpapUqZL69++vF154QV5eXln2k5KSopSUFMfjxMRESZLVapXVai3chcgHc3q6vCTZbDalF7Px2etVHOtWklBn96DO7kGd3YM6uwd1dg/q7D6urHVhvF8eH2xq1Kih06dPKy0tTZGRkXr00Ucd8w4ePKi1a9fq4Ycf1ooVK7Rv3z6NGDFCaWlp+u9//5tlf1OnTtXEiRMzTV+1apUCAgIKbTnyq9Yvv6ippIQTJ7SjmJ47tHr16qIeQqlAnd2DOrsHdXYP6uwe1Nk9qLP7uKLWly5dcsFInHl8sNmwYYOSkpK0detWjR49WnXr1lW/fv0kZezFqFy5sj744AN5eXmpRYsWOn78uF599dVsg82YMWP09NNPOx4nJiYqNDRUXbt2VVBQkFuWKS/M8fGSpKohIYqIiCji0TizWq1avXq1unTp4jgUEK5Hnd2DOrsHdXYP6uwe1Nk9qLP7uLLW9qOiXMnjg02tWrUkSU2aNNHJkycVGRnpCDZVq1aVxWJxOuzspptu0okTJ5SamiofH59M/fn6+srX1zfTdIvFUjw/LH8tm9lslrk4jk/FuHYlDHV2D+rsHtTZPaize1Bn96DO7uOKWhfGe1VsLvfsCoZhOJ0f06ZNG+3fv182m80xbe/evapatWqWoQYAAACAZyo2wSYpKUmxsbGKjY2VJMXFxSk2NlaHDx+WlHGI2COPPOJo//bbb+ubb77Rvn37tG/fPs2ZM0fTp0/X//3f/znaDB8+XGfOnNGoUaO0d+9eLV++XFOmTNGIESPcumwAAAAAClexORRtx44d6tixo+Ox/TyXgQMHKioqSgkJCY6QI2WcPzNmzBjFxcXJ29tbderU0bRp0/T444872oSGhmrVqlV66qmn1LRpU1WvXl2jRo3SCy+84L4FAwAAAFDoik2w6dChgwzDyHZ+VFSU0+ORI0dq5MiR1+23VatW2rp1a0GHBwAAAKAYKzaHogEAAABAfhFsAAAAAHg8gg0AAAAAj0ewKSlyOD8JAAAAKOkINgAAAAA8HsHG05lMRT0CAAAAoMgRbAAAAAB4PIINAAAAAI9HsAEAAADg8Qg2AAAAADwewQYAAACAxyPYAAAAAPB4BBsAAAAAHo9gAwAAAMDjEWwAAAAAeDyCDQAAAACPR7ABAAAA4PEINgAAAAA8HsEGAAAAgMcj2AAAAADweAQbAAAAAB6PYAMAAADA4xFsAAAAAHg8gg0AAAAAj0ewAQAAAODxCDYAAAAAPB7BBgAAAIDHI9gAAAAA8HgEGwAAAAAej2ADAAAAwOMRbAAAAAB4PIINAAAAAI9HsAEAAADg8Qg2AAAAADwewQYAAACAxyPYAAAAAPB4BBsAAAAAHo9gAwAAAMDjEWwAAAAAeDyCDQAAAACPR7ABAAAA4PEINgAAAAA8HsEGAAAAgMcj2AAAAADweAQbAAAAAB6PYAMAAADA4xFsAAAAAHi8YhNs1q9fr169eqlatWoymUxasmRJju03btyoNm3aqGLFivL391eDBg00c+bMbNt/+eWXMplMuueee1w7cAAAAABFzruoB2CXnJysZs2aafDgwbr//vuv2z4wMFBPPPGEmjZtqsDAQG3cuFGPP/64AgMDNWzYMKe28fHxevbZZ3XHHXcU1vABAAAAFKFiE2y6d++u7t2757p98+bN1bx5c8fj8PBwLVq0SBs2bHAKNunp6Xr44Yc1ceJEbdiwQefPn3flsAEAAAAUA8Um2BTUrl27tHnzZk2aNMlp+osvvqhKlSpp6NCh2rBhw3X7SUlJUUpKiuNxYmKiJMlqtcpqtbp20C5gTk+XlySbzab0YjY+e72KY91KEursHtTZPaize1Bn96DO7kGd3ceVtS6M98vjg02NGjV0+vRppaWlKTIyUo8++qhj3qZNm/Txxx8rNjY21/1NnTpVEydOzDR91apVCggIcMWQXSp8zx41k3TixAltX7GiqIeTpdWrVxf1EEoF6uwe1Nk9qLN7UGf3oM7uQZ3dxxW1vnTpkgtG4szjg82GDRuUlJSkrVu3avTo0apbt6769eunixcv6v/+7//04Ycf6oYbbsh1f2PGjNHTTz/teJyYmKjQ0FB17dpVQUFBhbEIBWI+fFiSFBISooiIiCIejTOr1arVq1erS5cuslgsRT2cEos6uwd1dg/q7B7U2T2os3tQZ/dxZa3tR0W5kscHm1q1akmSmjRpopMnTyoyMlL9+vXTgQMHdOjQIfXq1cvR1mazSZK8vb31xx9/qE6dOpn68/X1la+vb6bpFouleH5YvLwkSebkZJnj4op4MNewWhV47JgscXFFV7uaNaUs3s+SqNiuoyUMdXYP6uwe1Nk9qLN7UGf3cUWtC+O98vhgczXDMBznxzRo0EA///yz0/xx48bp4sWLev311xUaGloUQ3Q9kynj31WrpPr1i3Ys17BIurOoB9GwobRnz991AgAAQIlUbIJNUlKS9u/f73gcFxen2NhYVahQQWFhYRozZoyOHTumuXPnSpLefvtthYWFqUGDBpIy7mszffp0jRw5UpLk5+enxo0bO71GuXLlJCnTdI/WqZN0443S6dNFPZJMDGXssrRYLCqSWHH+vPTrr9Kff0qVKhXFCAAAAOAmxSbY7NixQx07dnQ8tp/nMnDgQEVFRSkhIUGH/zqfRMo4rGzMmDGKi4uTt7e36tSpo2nTpunxxx93+9iLVP360t69RT2KLKVZrfpuxQpFREQUza7hatWkhAQpPp5gAwAAUMIVm2DToUMHGYaR7fyoqCinxyNHjnTsncmta/tACRcWlhFsDh+Wbr21qEcDAACAQmQuaAdpaWn64Ycf9P777+vixYuSpOPHjyspKanAgwMKpGbNjH/j44t2HAAAACh0BdpjEx8fr27duunw4cNKSUlRly5dVLZsWb3yyiu6cuWK3nvvPVeNE8i7sLCMf686hBEAAAAlU4H22IwaNUq33nqrzp07J39/f8f0e++9V2vWrCnw4IACYY8NAABAqVGgPTYbN27Upk2b5OPj4zS9Zs2aOnbsWIEGBhSYPdiwxwYAAKDEK9AeG5vNpvT09EzTjx49qrJlyxaka6Dg7IeisccGAACgxCtQsOnSpYtmzZrleGwymZSUlKQJEyYoIiKioGMDCsa+x+bPP6VLl4p2LAAAAChUBQo2M2fO1Lp169SwYUNduXJF/fv3V3h4uI4dO6aXX37ZVWME8ic4WLLvOeRwNAAAgBKtQOfYVKtWTbGxsfriiy/0448/ymazaejQoXr44YedLiYAFAmTKWOvzZ49GYejNWhQ1CMCAABAISnwDTr9/f01ZMgQDRkyxBXjAVzLHmzYYwMAAFCiFSjYzJ07N8f5jzzySEG6BwqOCwgAAACUCgUKNqNGjXJ6bLVadenSJfn4+CggIIBgg6Jnv4DAgQNSYmLRjkWSypSRzAU6tQ0AAABZKFCwOXfuXKZp+/bt0/Dhw/Xcc88VpGvANezB5ssvM36KWuPG0s6d0jX3fgIAAEDBuPxPxzfeeKOmTZuWaW8OUCTatZMqVy7qUfxtzx4pOrqoRwEAAFDiFPjiAVnx8vLS8ePHC6NrIG+qVZMSEiSrtahHIv3739IHH0iLF0t33VXUowEAAChRChRsli1b5vTYMAwlJCTorbfeUps2bQo0MMBlzGbJ17eoRyHdd19GsFm6VHrnHc61AQAAcKECBZt77rnH6bHJZFKlSpXUqVMnvfbaawXpGih5OnaUgoKkEyekbduk228v6hEBAACUGAUKNjabzVXjAEo+Hx+pRw/piy+kN97IOETOBUxpaar6448ypaZK3oVydKn71KkjNW1a1KMAAAAeyMO/BQEe5p57MoKN/ccFvCW1dElPxYDZLMXF/X3/IQAAgFzKc7B5+umnc912xowZee0eKNl695YGDMi4r46L2AxD586dU/ny5WU2mVzWr9vt3i0lJUm//EKwAQAAeZbnYLNr165ctTN58hcsoLD4+kpz57q0y3SrVRtXrFBERITMFotL+3arHj2kFSukY8eKeiQAAMAD5TnYRHMPDgCFoXr1jH+PHi3acQAAAI/E9WYBFA81amT8yx4bAACQDwW+eMD27du1YMECHT58WKmpqU7zFi1aVNDuAZQW9j02BBsAAJAPBdpj8+WXX6pNmzb69ddftXjxYlmtVv36669au3atgoODXTVGAKUBwQYAABRAgYLNlClTNHPmTH377bfy8fHR66+/rt9++019+/ZVGFc1ApAX9kPROMcGAADkQ4GCzYEDB9SjRw9Jkq+vr5KTk2UymfTUU0/pgw8+cMkAAZQS9j02Z89Kly8X7VgAAIDHKVCwqVChgi5evChJql69uvbs2SNJOn/+vC5dulTw0QEoPcqVk/z9M34/frxIhwIAADxPvoJNbGysJOmOO+7Q6tWrJUl9+/bVqFGj9Nhjj6lfv37q3LmzywYJoBQwmbjkMwAAyLd8BZtbbrlFLVq00E033aR+/fpJksaMGaNnn31WJ0+e1H333aePP/7YpQMFUApwyWcAAJBP+Qo2mzZt0i233KLp06erTp06+r//+z+tW7dOzz//vJYtW6YZM2aofPnyrh4rgJKOK6MBAIB8ylewadWqlT788EOdOHFC7777ro4ePao777xTderU0eTJk3WUw0gA5AeHogEAgHwq0MUD/P39NXDgQMXExGjv3r3q16+f3n//fdWqVUsRERGuGiOA0oJD0QAAQD4VKNhcrU6dOho9erTGjh2roKAgrVy50lVdAygtOBQNAADkk7crOlm3bp1mz56thQsXysvLS3379tXQoUNd0TWA0sQebPbtk959t2jHcg1zerrC9+yR+cgRycurqIdTYlFn96DO7kGd3YM6u49Lau3vLw0a5NJx2eU72Bw5ckRRUVGKiopSXFycWrdurTfffFN9+/ZVYGCgK8cIoLQIC8v498wZ6V//KtqxXMNLUrOiHkQpQJ3dgzq7B3V2D+rsPi6pdaVKxSvYdOnSRdHR0apUqZIeeeQRDRkyRPXr13f12ACUNlWrStOnS1u2FPVIMrHZbDpx4oRCQkJkNrvsKF5cgzq7B3V2D+rsHtTZfVxS66Ag1w7qKvkKNv7+/lq4cKF69uwpL3b5AXClZ54p6hFkKd1q1fYVKxQRESGzxVLUwymxqLN7UGf3oM7uQZ3dp7jXOl/BZtmyZa4eBwAAAADkG/vrAAAAAHg8gg0AAAAAj0ewAQAAAODxCDYAAAAAPB7BBgAAAIDHI9gAAAAA8HgEGwAAAAAej2ADAAAAwOMRbAAAAAB4vGITbNavX69evXqpWrVqMplMWrJkSY7tN27cqDZt2qhixYry9/dXgwYNNHPmTKc2H374oe644w6VL19e5cuX15133qlt27YV4lIAAAAAKArFJtgkJyerWbNmeuutt3LVPjAwUE888YTWr1+v3377TePGjdO4ceP0wQcfONrExMSoX79+io6O1pYtWxQWFqauXbvq2LFjhbUYAAAAAIqAd1EPwK579+7q3r17rts3b95czZs3dzwODw/XokWLtGHDBg0bNkyS9Pnnnzs958MPP9TXX3+tNWvW6JFHHnHNwAEAAAAUuWITbApq165d2rx5syZNmpRtm0uXLslqtapChQrZtklJSVFKSorjcWJioiTJarXKarW6bsClgL1e1K1wUWf3oM7uQZ3dgzq7B3V2D+rsPq6sdWG8XybDMAyX91pAJpNJixcv1j333HPdtjVq1NDp06eVlpamyMhIjR8/Ptu2I0aM0MqVK7Vnzx75+fll2SYyMlITJ07MNH3evHkKCAjI9TIAAAAAyNqlS5fUv39/XbhwQUFBQS7p0+P32GzYsEFJSUnaunWrRo8erbp166pfv36Z2r3yyiv64osvFBMTk22okaQxY8bo6aefdjxOTExUaGiounbt6rKilxZWq1WrV69Wly5dZLFYino4JRZ1dg/q7B7U2T2os3tQZ/egzu7jylrbj4pyJY8PNrVq1ZIkNWnSRCdPnlRkZGSmYDN9+nRNmTJFP/zwg5o2bZpjf76+vvL19c003WKx8GHJJ2rnHtTZPaize1Bn96DO7kGd3YM6u48ral0Y75XHB5urGYbhdH6MJL366quaNGmSVq5cqVtvvbWIRgYAAACgMBWbYJOUlKT9+/c7HsfFxSk2NlYVKlRQWFiYxowZo2PHjmnu3LmSpLffflthYWFq0KCBpIz72kyfPl0jR4509PHKK69o/PjxmjdvnsLDw3XixAlJUpkyZVSmTBk3Lh0AAACAwlRsgs2OHTvUsWNHx2P7eS4DBw5UVFSUEhISdPjwYcd8m82mMWPGKC4uTt7e3qpTp46mTZumxx9/3NHmnXfeUWpqqh544AGn15owYYIiIyMLd4EAAAAAuE2xCTYdOnRQThdoi4qKcno8cuRIp70zWTl06JALRgYAAACguDMX9QAAAAAAoKAINgAAAAA8HsEGAAAAgMcj2AAAAADweAQbAAAAAB6PYAMAAADA4xFsAAAAAHg8gg0AAAAAj0ewAQAAAODxCDYAAAAAPB7BBgAAAIDHI9gAAAAA8HgEGwAAAAAej2ADAAAAwOMRbAAAAAB4PIINAAAAAI9HsAEAAADg8Qg2AAAAADwewQYAAACAxyPYAAAAAPB4BBsAAAAAHo9gAwAAAMDjEWwAAAAAeDyCDQAAAACPR7ABAAAA4PEINgAAAAA8HsEGAAAAgMcj2AAAAADweAQbAAAAAB6PYAMAAADA4xFsAAAAAHg8gg0AAAAAj0ewAQAAAODxCDYAAAAAPB7BBgAAAIDHI9gAAAAA8HgEGwAAAAAej2ADAAAAwOMRbAAAAAB4PIINAAAAAI9HsAEAAADg8Qg2AAAAADwewQYAAACAxyPYAAAAAPB4BBsAAAAAHo9gAwAAAMDjEWwAAAAAeLxiE2zWr1+vXr16qVq1ajKZTFqyZEmO7Tdu3Kg2bdqoYsWK8vf3V4MGDTRz5sxM7RYuXKiGDRvK19dXDRs21OLFiwtpCQAAAAAUlWITbJKTk9WsWTO99dZbuWofGBioJ554QuvXr9dvv/2mcePGady4cfrggw8cbbZs2aIHH3xQAwYM0E8//aQBAwaob9+++t///ldYiwEAAACgCJgMwzCKehDXMplMWrx4se655548Pe++++5TYGCgPv30U0nSgw8+qMTERH333XeONt26dVP58uX1xRdf5KrPxMREBQcH68KFCwoKCtKPh3/U4CWDdeHKhSzbm33/zoo2q02yZd+3ycckk8kkSTLSDBnp2b8V2bWtWa6mbqt+m8r7l3e0tfhaZDZnjCPNmqb0tHSZZMqyX3tbk8nkaJvl68ski49FZi/nfiU5xuXUr49Fhgz9+uuvalCvgQxb9stm8bHIy9tLkpSelq40a1qm17bztng7tc1uvPa23t7e2fZ79div7teWbpM11Zrpte28vL3kbfGWyWRyapupb5kcbSXJZrPJmvJ322vrdm3btJTM4726rcXHIklKS0vTjzt+VOPGjeXl5ZVp3GYvs6OtYRhKvZKa5XsmSWazWRZfi+P5KZdTMi/XX881mU3y8fVxTLe3zapmJpNJPn4+jt+vXLqS5eubZJLF2yI/fz+ZTWZ5mbxkvWJVdpspk8kkX39fpzHkuu2VlEzrpaG/H/sF+Dm1taZatSt2l5rf3NyxXmXVNjUlVbb07D/4fgF+jjFer62vv6+j3tZUa47re1Ztr16eq/n4+Ti2EdfrN7dtDcOQxdfiWAev1+/VbdOsaY7PZ1p6mmJ/itXNzW6Wt1dGna/eRlit1iw/y45+r9meZPf5lP7aRli8s2179bp0dVtbuk2pKam56jc3bb0sf217bDalXsllv9dpe/U2wjAMx+fTvkxptjTt/mm3mjZrKl8f3yzbZsXsZXb63Gf3WTZk5LqtlLHtsW8j8tLWPt7C2EakXkmVzfb35/Paz5PT5/6atnbptnTt3r1b/7jtH471OTefe0e/xWAbcfXns6Bts/seUdC2Mkt7ftmjZs2aybAZ1/1ukNN3jqtd/f/la9teux45/T88h+8G+Wl79Tbi6u8ROfZ7nbZZfTfI7rNxddusvnM4tf3re4RdVtuT4LLB6tekX6bv2K7gff0mnmHXrl3avHmzJk2a5Ji2ZcsWPfXUU07t7rrrLs2aNSvbflJSUpSS8vebkJiYKCnjf6ZWq1X9HuynvVv3Zj+QyKt+/0rSrzkM+j+S7NvxxZJ+yqHtc5IC//p9uaTtGb/GK17rtd657ShJ9pyzStLmHPr9l6TKf/0eLWldDm0fk1T9r983SVqdQ9uBkmr99ftiSStyaNtfUr2/ft8laWkObftIavTX779IWpBD296Smv/1+15J83JoGyGp5V+/x0n6JIe2XSS1+ev3Y5I+zKFte0kd//r9lKR3cmjbWlLXv34/J+n1HNr+Q1KPv35PlvRqDm2bSbr3r99TJU3JoW1DSX2vehyZQ9sbJT181ePJkrLbhtaUNPiqx69IupRN22qShl31eKakrP+OIFWSNOKqx29LOp1N22BJV28OPpB0PJu2AZKev+rxHEnx2bS1SBp71ePPJe3Lpq3k9m1ElorbNmKb2EZIbCPYRmSIvOp3thEZcruNOCy2ER6wjaj8SmU90OABWa3ZB6/88vhgU6NGDZ0+fVppaWmKjIzUo48+6ph34sQJValSxal9lSpVdOLEiWz7mzp1qiZOnJhp+qpVqxQQEKCkpKQcx/PKja84fv+0zKf6WT9n23ZSnUmOvzrND5qvndqZbdv/1v6vygSVkSQtDl6sLdqSbdvbgm+TX/mMvyQd8DugozqabdsWQS0UWD5jS3fI/5AO63C2bW8ue7PKlisrSTrqf1Rxisu2beMyjVWuXDlJ0nH/4zqog9m2vSnwJlUoV0GSdDLgpPZrf7Zt6wXW0w3BN0iS/gz4U3uVfcisE1BHlYMztrbnAs7pd/2ebdtw/3CFBIdIki6UuaDf9Fu2bUP9QlUtuJokKelCkn7RL9m2reZbTTWCakiSLl26pD3ak23bEJ8QhQaFSpJS0lK0W7uzbVvJp5JqBtWUJFnNVv2Uw//NKvpUVHhQuCQpPSVdsYrNtm0573KqXba24/GP+jHbtkHeQapTto7j8U+mn2TLZhdloHegbix7o+Ovg3tMe5SurP+i5m/2V+3A2jL++m+feZ/SlPVf1HzMPqoVUMvxOM4cp1Rl/Vdsb7O36gT8Pd54c7yuKOu/CnuZvHRj4I1/t/WK12VdzrKtSSbVD6zveHzE64iSlZxlW0lqENjA8fsx72O6qIvZtq0fWF9mn4y/WB73Pq4L2X57k24MuFHegRmb9BPeJ3RO57JtWyegjnwCM7Y9Jy0ndVZns21b27+2fAMz/oJ82ue0/tSf2bYN9w+Xf6C/JOmMzxmd0qls29b0r6nAwIxtz1mfszqh7LfLoX6hKhuYse0573tex7P9tinV8K2h4MBgSdIF3ws5bv+q+VZT+cCMb28X/S7muP0L8QlRxcCKkqRk/2Qd0qFs21bxqaIbAjO2U5f9L+e4/avkU0mVAzO2U1f8r+iADmTbtqKloqqWqSpJSk1NzXH7V8FSQdXKZGyn0pSW4/avnKWcapTJ2E7ZUmz6NYdv0kHeQapZpqbjcU7/jyvrVVbhZcIdj/doT7Z7CAK9AlW7zN/bnl9Nv+a4jahbpq7j8e/m32XNJjH5mn1Vr0w9x+O95r1KUdZ7pCxmi24qc5Pj8T7zvmw/914mLzUq08jx+IDXgWw/9yaZ1KRME8fvB70O5vi5b1ammeP3Q96HcvzcNw5sLC/fjL+aH7YczvFz36hMI3mXydhGHLUc1RmdybbtTWVukk/ZjG3EcZ/jOp1tGszYTvmVzfjOccL3hE7qZLZt6wXUU0DZAEnSKd9TOX6W6wTUUdmyGZ/7076ndUzHsm1b27+2gstmfO7P+J3J8bMc7h+u8mUzPvfn/M/l+FkO8wtTxbIZn/sL/hdy/CyH+oaqUtlKkqSLARe1L4f0Wt23uqqUzfh+mhyQrD/0R7ZtQ3xDVK1sxmf5cvLlHL+fVPaprBplMz7LKdaUHL+f3GC5QWFlwyRJVpM1x89ynr5HWMqpTtDf/6/N6rttfZ/6WrFihS5dyu6vF/nn8YeixcXFKSkpSVu3btXo0aP11ltvqV+/fpIkHx8fffLJJ47HkvT5559r6NChunIl6y80We2xCQ0N1Z9//qmgoCC9FP2SXlr3kgY0HaA37noj0/Pt/6OWpCtXrig9PfvdoQEBAY7dwikpKUpLy353aF7a+vv7O3YLp6am5piI89LWz8/PsdsxN21tNptWr16tDh06ZLt7U5J8fX0dh/ZYrValpmZ/eMXVbdPS0pzeq2v5+PjIYrHkuW16enq264ckWSwW+fj45LmtzWbT5ctZ/08yr229vb3l65vxZTM1NVXffvutOnXq5FiG7NoahpHjhsTLy0t+fn8fXpGcnP0X9Ly0NZvN8vf3z1fbS5cu5XjoSEBAQL7aXr58OctDR+yu/ixfvnxZKSkpWrt2bZZ1zsvnnm1E5rZXf+6tVmumOrONyHvb633ur66zv78/24gs2uZ1G5FVW3ude/Xq5Vh/2EYUbBuRFbPZrOjoaHXp0sXRd3bYRmTIy3eDvHznyM3n3r6OJyYm6oYbbuBQtKvVqpXx19omTZro5MmTioyMdASZkJCQTHtnTp06lWkvztV8fX0db97VLBaLLJaMY//lk3Gsqn2PRHayesNLU1v7BisgICDXfVssFqf/sVyv7dX/c3Nl26s/lK5qKynLdcsVbf38/FSuXLlc1dm+0cuN663j7mgbHBxcKG3zur5brdZc1dlTPp/Fra39c3+9OrONyF/baz/3OdWZbUQGV6zv9jrbv0O4qt/S2Danz739+4a9zmwj8t42L5/7vHznyOmznJd1ILeKzVXRXMEwDKc03apVK61e7XwA56pVq9S6dWt3Dw0AAABAISo2e2ySkpK0f//f51bExcUpNjZWFSpUUFhYmMaMGaNjx45p7ty5kqS3335bYWFhatAg43j1jRs3avr06Ro5cqSjj1GjRqldu3Z6+eWX1bt3by1dulQ//PCDNm7c6N6FAwAAAFCoik2w2bFjhzp27Oh4/PTTT0uSBg4cqKioKCUkJOjw4b9PBrPZbBozZozi4uLk7e2tOnXqaNq0aXr88ccdbVq3bq0vv/xS48aN0/jx41WnTh3Nnz9ft912m/sWDAAAAEChKzbB5nonmEdFRTk9HjlypNPemew88MADeuCBBwo6PAAAAADFWLEJNp6iGF5EDjlIT5dee006nP2VHz2ezWZWfHwTrVxplrlEnTVXvFBn96DO7kGd3YM6uwd1dh9X1LpMGWnaNNeOy45ggxJt0ybphReKehSFzUtS7eu2QkFRZ/egzu5Bnd2DOrsHdXafgte6UiWCTbFjvxY8ircLf93XrHp1aejQoh1LYUlPT9f+/ftUt+6Njmv+w/Wos3tQZ/egzu5Bnd2DOruPK2p91a2aXI5ggxLNfu+v8HBp4sQiHUqhsVptWrHiD0VE1JHFwga9sFBn96DO7kGd3YM6uwd1dp/iXmuORESJZg82hXAPKAAAABQjBBuUaAQbAACA0oFggxKNYAMAAFA6EGxQoqWlZfzrzdlkAAAAJRrBJo8McR8bT8IeGwAAgNKBYIMSjWADAABQOhBs8skk7mPjCQg2AAAApQPBBiUawQYAAKB0INigRCPYAAAAlA4EG5RoBBsAAIDSgWCDEo3LPQMAAJQOBBuUaOyxAQAAKB0INnlkGNzHxpMQbAAAAEoHgg1KNIINAABA6UCwySeTifvYeAKCDQAAQOlAsEGJRrABAAAoHQg2KNEINgAAAKUDwQYlmj3YcLlnAACAko1ggxLNfh8b9tgAAACUbAQblGgcigYAAFA6EGzyyBD3sfEkBBsAAIDSgWCDEo1gAwAAUDoQbPLJJO5j4wkINgAAAKUDwQYlGsEGAACgdCDYoEQj2AAAAJQOBBuUaPbLPXMfGwAAgJKNYIMSjT02AAAApQPBBiUawQYAAKB0INigRCPYAAAAlA4EmzwyDG7Q6UkINgAAAKUDwSafTCbuY+MJCDYAAAClA8EGJRrBBgAAoHQg2KBEswcbLvcMAABQshFsUKLZ72PDHhsAAICSjWCDEo1D0QAAAEoHgg1KLMOQ0tMzfifYAAAAlGwEG5RY9r01EsEGAACgpCPY5JEh7mPjKQg2AAAApQfBJp9M4j42xR3BBgAAoPQg2KDEujrYcLlnAACAko1ggxLLfqlnsznjBwAAACUXX/dQYnGpZwAAgNKDYIMSi2ADAABQehSbYLN+/Xr16tVL1apVk8lk0pIlS3Jsv2jRInXp0kWVKlVSUFCQWrVqpZUrV2ZqN2vWLNWvX1/+/v4KDQ3VU089pStXrhTSUqA4IdgAAACUHsUm2CQnJ6tZs2Z66623ctV+/fr16tKli1asWKGdO3eqY8eO6tWrl3bt2uVo8/nnn2v06NGaMGGCfvvtN3388ceaP3++xowZU1iLgWKEYAMAAFB6FJtrRXXv3l3du3fPdftZs2Y5PZ4yZYqWLl2qb775Rs2bN5ckbdmyRW3atFH//v0lSeHh4erXr5+2bduW73EaBvex8RQEGwAAgNKj2ASbgrLZbLp48aIqVKjgmNa2bVt99tln2rZtm1q2bKmDBw9qxYoVGjhwYLb9pKSkKCUlxfE4MTFRkmS1WmW1WpVuS5eUEXCsV19PGJnY61NUdbp82STJWxaLIas1rUjG4A5FXefSgjq7B3V2D+rsHtTZPaiz+7iy1oXxfpWYYPPaa68pOTlZffv2dUx76KGHdPr0abVt21aGYSgtLU3Dhw/X6NGjs+1n6tSpmjhxYqbpq1atUkBAgPYn7JckxcfHa8WKFa5fkBJo9erVRfK6v/5aQdIdSklJ1ooVa4pkDO5UVHUubaize1Bn96DO7kGd3YM6u48ran3p0iUXjMRZiQg2X3zxhSIjI7V06VJVrlzZMT0mJkaTJ0/WO++8o9tuu0379+/XqFGjVLVqVY0fPz7LvsaMGaOnn37a8TgxMVGhoaHq2rWrgoKCtH39dumkVLNmTUXcFVHoy+bJrFarVq9erS5dushSBMeDBQaaJEnBwYGKiCi571VR17m0oM7uQZ3dgzq7B3V2D+rsPq6stf2oKFfy+GAzf/58DR06VAsWLNCdd97pNG/8+PEaMGCAHn30UUlSkyZNlJycrGHDhmns2LEyZ3HXRl9fX/n6+maabrFYZLFY5GX2kiSZzWY+PLlkr5272U+H8vExlYr3qqjqXNpQZ/egzu5Bnd2DOrsHdXYfV9S6MN6rYnNVtPz44osvNGjQIM2bN089evTINP/SpUuZwouXl5cMw+AiAKUAFw8AAAAoPYrNHpukpCTt37/f8TguLk6xsbGqUKGCwsLCNGbMGB07dkxz586VlBFqHnnkEb3++uu6/fbbdeLECUmSv7+/goODJUm9evXSjBkz1Lx5c8ehaOPHj9fdd98tLy8v9y8k3IpgAwAAUHoUm2CzY8cOdezY0fHYfp7LwIEDFRUVpYSEBB0+fNgx//3331daWppGjBihESNGOKbb20vSuHHjZDKZNG7cOB07dkyVKlVSr169NHnyZPcsFIoUwQYAAKD0KDbBpkOHDjkeHmYPK3YxMTHX7dPb21sTJkzQhAkTCji6vxniEDZPQbABAAAoPTz6HBsgJwQbAACA0oNgk08mmYp6CLiOtL/uyeldbPZLAgAAoLAQbFBisccGAACg9CDYoMQi2AAAAJQeBBuUWAQbAACA0oNggxKLYAMAAFB6EGxQYhFsAAAASg+CTR7ldK8dFC8EGwAAgNKDYIMSi8s9AwAAlB4Em3wymbiPTXHHHhsAAIDSg2CDEotgAwAAUHoQbFBiEWwAAABKD4INSiyCDQAAQOlBsEGJRbABAAAoPQg2KLEINgAAAKUHwSaPDHEfG09BsAEAACg9CDYosbiPDQAAQOlBsMknk7iPTXHHHhsAAIDSg2CDEotgAwAAUHoQbFBiEWwAAABKD4INSiyCDQAAQOlBsEGJRbABAAAoPQg2KLEINgAAAKUHwQYlFpd7BgAAKD0INnlkGNyg01OwxwYAAKD0INjkk8nEfWyKO4INAABA6UGwQYlFsAEAACg9CDYosQg2AAAApQfBBiUWwQYAAKD0INigxCLYAAAAlB4EG5RYBBsAAIDSg2CDEov72AAAAJQeBJs8MsR9bDwFe2wAAABKD4JNPpnEfWyKO4INAABA6UGwQYmUni4Zf+1cI9gAAACUfAQblEj2vTUSwQYAAKA0INigRCLYAAAAlC5cLwoudfmyNG6cdOqUZLN56dixW/TVV14yuzlCp6b+/TvBBgAAoOQj2MCl5s2TZsywPzJLCi3C0Ujly0teXkU6BAAAALgBwQYutWlTxr/du0sdOqTrt99+00033SSvIkoX7dpJJi5gBwAAUOIRbPLIMLiPTU42b874d8QIqWtXm1asOKCIiPqyWNhtAgAAgMLDxQPyycRugEz+/FP644+M32+/vWjHAgAAgNKFYAOX2bo1498GDaSKFYt2LAAAAChdCDZwGfthaK1bF+04AAAAUPoQbOAyBBsAAAAUFS4e4OHOnZPGjpXOni3qkfx9KBrBBgAAAO5GsPFws2dL775b1KP4W0iIVL9+UY8CAAAApU2xCTbr16/Xq6++qp07dyohIUGLFy/WPffck237RYsW6d1331VsbKxSUlLUqFEjRUZG6q677nJqd/78eY0dO1aLFi3SuXPnVKtWLb322muKiIgo5CVyj+3bM/697z6pffuiHYskdewomTnAEQAAAG5WbIJNcnKymjVrpsGDB+v++++/bvv169erS5cumjJlisqVK6c5c+aoV69e+t///qfmzZtLklJTU9WlSxdVrlxZX3/9tWrUqKEjR46obNmy+R6noeJ1H5sdOzL+/ec/pS5dinYsAAAAQFEpNsGme/fu6t69e67bz5o1y+nxlClTtHTpUn3zzTeOYDN79mydPXtWmzdvlsVikSTVrFnTJeM1qejvY3PunHTgQMbvLVoU7VgAAACAolRsgk1B2Ww2Xbx4URUqVHBMW7ZsmVq1aqURI0Zo6dKlqlSpkvr3768XXnhBXl5eWfaTkpKilJQUx+PExERJktVqldVqVbot3fF6Vqu1EJfo+rZtM0nyVu3ahsqWTVMRDycTe32Kuk4lHXV2D+rsHtTZPaize1Bn96DO7uPKWhfG+1Vigs1rr72m5ORk9e3b1zHt4MGDWrt2rR5++GGtWLFC+/bt04gRI5SWlqb//ve/WfYzdepUTZw4MdP0VatWKSAgQAePH8zoO+6gVqxYUTgLk0uLFtWV1EghIce1YsWOIh1LTlavXl3UQygVqLN7UGf3oM7uQZ3dgzq7B3V2H1fU+tKlSy4YibMSEWy++OILRUZGaunSpapcubJjus1mU+XKlfXBBx/Iy8tLLVq00PHjx/Xqq69mG2zGjBmjp59+2vE4MTFRoaGh6tq1q4KCgrQxeqN0Sqpdq7Yi7izaCxB8+mnGXqeePUOK5cUQrFarVq9erS5dujgOBYTrUWf3oM7uQZ3dgzq7B3V2D+rsPq6stf2oKFfy+GAzf/58DR06VAsWLNCdd97pNK9q1aqyWCxOh53ddNNNOnHihFJTU+Xj45OpP19fX/n6+maabrFYMvoyZ/RlNpuL/MPz448Z/7Zs6SWLJetD64oDe+1QuKize1Bn96DO7kGd3YM6uwd1dh9X1Low3iuPDjZffPGFhgwZoi+++EI9evTINL9NmzaaN2+ebDabzH9dg3jv3r2qWrVqlqEmNxJPB0lff65Fy5vrt9cLNPwCMQwpLi7j91tuKbpxAAAAAMVBsQk2SUlJ2r9/v+NxXFycYmNjVaFCBYWFhWnMmDE6duyY5s6dKykj1DzyyCN6/fXXdfvtt+vEiROSJH9/fwUHB0uShg8frjfffFOjRo3SyJEjtW/fPk2ZMkX//ve/8z3O32KaSXt66JCkQ/nuxXWaNpXKly/qUQAAAABFq9gEmx07dqhjx46Ox/bzXAYOHKioqCglJCTo8OHDjvnvv/++0tLSNGLECI0YMcIx3d5ekkJDQ7Vq1So99dRTatq0qapXr65Ro0bphRdeyPc4060Zh3xVb3JAk5+pk+9+XMFkkjp0KNIhAAAAAMVCsQk2HTp0kGFkf/NLe1ixi4mJyVW/rVq10tatWwswsqxVqH5aAwcWbbABAAAAkMFc1AMAAAAAgIIi2AAAAADweAQbAAAAAB6PYAMAAADA4xFsAAAAAHg8gg0AAAAAj1dsLvdcXNkvQZ2YmChJSktNlpSo9LRkxzRkzWq16tKlS0pMTJTFYinq4ZRY1Nk9qLN7UGf3oM7uQZ3dgzq7jytrbf8endPtXvLKZLiytxLo6NGjCg0NLephAAAAACXOkSNHVKNGDZf0RbC5DpvNpuPHj6ts2bIymUxFPRyPkpiYqNDQUB05ckRBQUFFPZwSizq7B3V2D+rsHtTZPaize1Bn93FlrQ3D0MWLF1WtWjWZza45O4ZD0a7DbDa7LEWWVkFBQWxo3IA6uwd1dg/q7B7U2T2os3tQZ/dxVa2Dg4NdMJq/cfEAAAAAAB6PYAMAAADA4xFsUGh8fX01YcIE+fr6FvVQSjTq7B7U2T2os3tQZ/egzu5Bnd2nuNeaiwcAAAAA8HjssQEAAADg8Qg2AAAAADwewQYAAACAxyPYAAAAAPB4BBvkyfr169WrVy9Vq1ZNJpNJS5YscZpvGIYiIyNVrVo1+fv7q0OHDvrll1+c2qSkpGjkyJG64YYbFBgYqLvvvltHjx5141IUf9er86BBg2QymZx+br/9dqc21Pn6pk6dqn/84x8qW7asKleurHvuuUd//PGHUxvW6YLLTZ1Zpwvu3XffVdOmTR03zmvVqpW+++47x3zWZde4Xp1ZlwvH1KlTZTKZ9OSTTzqmsU67XlZ19qR1mmCDPElOTlazZs301ltvZTn/lVde0YwZM/TWW29p+/btCgkJUZcuXXTx4kVHmyeffFKLFy/Wl19+qY0bNyopKUk9e/ZUenq6uxaj2LtenSWpW7duSkhIcPysWLHCaT51vr5169ZpxIgR2rp1q1avXq20tDR17dpVycnJjjas0wWXmzpLrNMFVaNGDU2bNk07duzQjh071KlTJ/Xu3dvxRY912TWuV2eJddnVtm/frg8++EBNmzZ1ms467VrZ1VnyoHXaAPJJkrF48WLHY5vNZoSEhBjTpk1zTLty5YoRHBxsvPfee4ZhGMb58+cNi8VifPnll442x44dM8xms/H999+7beye5No6G4ZhDBw40Ojdu3e2z6HO+XPq1ClDkrFu3TrDMFinC8u1dTYM1unCUr58eeOjjz5iXS5k9jobBuuyq128eNG48cYbjdWrVxvt27c3Ro0aZRgG22dXy67OhuFZ6zR7bOAycXFxOnHihLp27eqY5uvrq/bt22vz5s2SpJ07d8pqtTq1qVatmho3buxog9yJiYlR5cqVVa9ePT322GM6deqUYx51zp8LFy5IkipUqCCJdbqwXFtnO9Zp10lPT9eXX36p5ORktWrVinW5kFxbZzvWZdcZMWKEevTooTvvvNNpOuu0a2VXZztPWae93fpqKNFOnDghSapSpYrT9CpVqig+Pt7RxsfHR+XLl8/Uxv58XF/37t3Vp08f1axZU3FxcRo/frw6deqknTt3ytfXlzrng2EYevrpp9W2bVs1btxYEut0YciqzhLrtKv8/PPPatWqla5cuaIyZcpo8eLFatiwoePLBeuya2RXZ4l12ZW+/PJL/fjjj9q+fXumeWyfXSenOkuetU4TbOByJpPJ6bFhGJmmXSs3bfC3Bx980PF748aNdeutt6pmzZpavny57rvvvmyfR52z98QTT2j37t3auHFjpnms066TXZ1Zp12jfv36io2N1fnz57Vw4UINHDhQ69atc8xnXXaN7OrcsGFD1mUXOXLkiEaNGqVVq1bJz88v23as0wWTmzp70jrNoWhwmZCQEEnKlM5PnTrl+ItKSEiIUlNTde7cuWzbIO+qVq2qmjVrat++fZKoc16NHDlSy5YtU3R0tGrUqOGYzjrtWtnVOSus0/nj4+OjunXr6tZbb9XUqVPVrFkzvf7666zLLpZdnbPCupw/O3fu1KlTp9SiRQt5e3vL29tb69at0xtvvCFvb29HrVinC+Z6dc7q5P/ivE4TbOAytWrVUkhIiFavXu2YlpqaqnXr1ql169aSpBYtWshisTi1SUhI0J49exxtkHdnzpzRkSNHVLVqVUnUObcMw9ATTzyhRYsWae3atapVq5bTfNZp17henbPCOu0ahmEoJSWFdbmQ2eucFdbl/OncubN+/vlnxcbGOn5uvfVWPfzww4qNjVXt2rVZp13genX28vLK9JxivU679VIF8HgXL140du3aZezatcuQZMyYMcPYtWuXER8fbxiGYUybNs0IDg42Fi1aZPz8889Gv379jKpVqxqJiYmOPv75z38aNWrUMH744Qfjxx9/NDp16mQ0a9bMSEtLK6rFKnZyqvPFixeNZ555xti8ebMRFxdnREdHG61atTKqV69OnfNo+PDhRnBwsBETE2MkJCQ4fi5duuRowzpdcNerM+u0a4wZM8ZYv369ERcXZ+zevdv4z3/+Y5jNZmPVqlWGYbAuu0pOdWZdLlzXXq2LdbpwXF1nT1unCTbIk+joaENSpp+BAwcahpFx+cUJEyYYISEhhq+vr9GuXTvj559/durj8uXLxhNPPGFUqFDB8Pf3N3r27GkcPny4CJam+MqpzpcuXTK6du1qVKpUybBYLEZYWJgxcODATDWkzteXVY0lGXPmzHG0YZ0uuOvVmXXaNYYMGWLUrFnT8PHxMSpVqmR07tzZEWoMg3XZVXKqM+ty4bo22LBOF46r6+xp67TJMAzDffuHAAAAAMD1OMcGAAAAgMcj2AAAAADweAQbAAAAAB6PYAMAAADA4xFsAAAAAHg8gg0AAAAAj0ewAQAAAODxCDYAAAAAPB7BBgCAaxw6dEgmk0mxsbFFPRQAQC4RbAAA+TJo0CCZTCaZTCZZLBZVqVJFXbp00ezZs2Wz2fLUV1RUlMqVK+eScXXo0EFPPvmkS/oCAHgOgg0AIN+6deumhIQEHTp0SN999506duyoUaNGqWfPnkpLSyvq4QEAShGCDQAg33x9fRUSEqLq1avrlltu0X/+8x8tXbpU3333naKiohztZsyYoSZNmigwMFChoaH617/+paSkJElSTEyMBg8erAsXLjj2AEVGRkqSPvvsM916660qW7asQkJC1L9/f506dSpPYwwPD9eUKVM0ZMgQlS1bVmFhYfrggw+c2mzbtk3NmzeXn5+fbr31Vu3atStTP7/++qsiIiJUpkwZValSRQMGDNCff/7pWAYfHx9t2LDB0f61117TDTfcoISEhDyNFwCQPwQbAIBLderUSc2aNdOiRYsc08xms9544w3t2bNHn3zyidauXavnn39ektS6dWvNmjVLQUFBSkhIUEJCgp599llJUmpqql566SX99NNPWrJkieLi4jRo0KA8j+m1115zBJZ//etfGj58uH7//XdJUnJysnr27Kn69etr586dioyMdLy+XUJCgtq3b6+bb75ZO3bs0Pfff6+TJ0+qb9++kv4+/G3AgAG6cOGCfvrpJ40dO1Yffvihqlatmp8yAgDyyLuoBwAAKHkaNGig3bt3Ox5ffc5LrVq19NJLL2n48OF655135OPjo+DgYJlMJoWEhDj1M2TIEMfvtWvX1htvvKGWLVsqKSlJZcqUyfV4IiIi9K9//UuS9MILL2jmzJmKiYlRgwYN9Pnnnys9PV2zZ89WQECAGjVqpKNHj2r48OGO57/77ru65ZZbNGXKFMe02bNnKzQ0VHv37lW9evU0adIk/fDDDxo2bJh++eUXDRgwQPfee2+uxwgAKBiCDQDA5QzDkMlkcjyOjo7WlClT9OuvvyoxMVFpaWm6cuWKkpOTFRgYmG0/u3btUmRkpGJjY3X27FnHRQkOHz6shg0b5no8TZs2dfxuD1D2Q9p+++03NWvWTAEBAY42rVq1cnr+zp07FR0dnWWYOnDggOrVqycfHx999tlnatq0qWrWrKlZs2blenwAgILjUDQAgMv99ttvqlWrliQpPj5eERERaty4sRYuXKidO3fq7bffliRZrdZs+0hOTlbXrl1VpkwZffbZZ9q+fbsWL14sKeMQtbywWCxOj00mkyMkGYZx3efbbDb16tVLsbGxTj/79u1Tu3btHO02b94sSTp79qzOnj2bpzECAAqGPTYAAJdau3atfv75Zz311FOSpB07digtLU2vvfaazOaMv6d99dVXTs/x8fFRenq607Tff/9df/75p6ZNm6bQ0FBHX67WsGFDffrpp7p8+bL8/f0lSVu3bnVqc8stt2jhwoUKDw+Xt3fW/+s8cOCAnnrqKX344Yf66quv9Mgjj2jNmjWOZQYAFC62tgCAfEtJSdGJEyd07Ngx/fjjj5oyZYp69+6tnj176pFHHpEk1alTR2lpaXrzzTd18OBBffrpp3rvvfec+gkPD1dSUpLWrFmjP//8U5cuXVJYWJh8fHwcz1u2bJleeuklly9D//79ZTabNXToUP36669asWKFpk+f7tRmxIgROnv2rPr166dt27bp4MGDWrVqlYYMGaL09HSlp6drwIAB6tq1qwYPHqw5c+Zoz549eu2111w+XgBA1gg2AIB8+/7771W1alWFh4erW7duio6O1htvvKGlS5fKy8tLknTzzTdrxowZevnll9W4cWN9/vnnmjp1qlM/rVu31j//+U89+OCDqlSpkl555RVVqlRJUVFRWrBggRo2bKhp06ZlChyuUKZMGX3zzTf69ddf1bx5c40dO1Yvv/yyU5tq1app06ZNSk9P11133aXGjRtr1KhRCg4Oltls1uTJk3Xo0CHHZaRDQkL00Ucfady4cYqNjXX5mAEAmZmM3BxcDAAAAADFGHtsAAAAAHg8gg0AAAAAj0ewAQAAAODxCDYAAAAAPB7BBgAAAIDHI9gAAAAA8HgEGwAAAAAej2ADAAAAwOMRbAAAAAB4PIINAAAAAI9HsAEAAADg8Qg2AAAAADwewQYAAACAxyPYAAAAAPB4BBsAAAAAHo9gAwAAAMDjEWwAAAAAeDyCDQAAAACPR7ABAAAA4PEINgAAAAA8HsEGAAAAgMcj2AAAAADweAQbAAAAAB6PYAMAAADA4xFsAAAAAHg8gg0AAAAAj0ewAQAAAODxCDYAAAAAPB7BBgAAAIDHI9gAAAAA8HgEGwAAAAAej2ADAAAAwOMRbAAAAAB4PIINAAAAAI9HsAEAAADg8Qg2AAAAADwewQYAAACAxyPYAAAAAPB4BBsAAAAAHo9gAwAAAMDjEWwAAAAAeLz/B0JAd0p5MxBTAAAAAElFTkSuQmCC;clipPath=inset(25.96% 39.33% 6.73% 3% round 50%);" vertex="1" parent="1">
          <mxGeometry x="360" y="154.76" width="573.58" height="464.17" as="geometry" />
        </mxCell>
        <mxCell id="AK2-ss-QhYlCPNd1e7_Q-8" value="" style="rounded=1;whiteSpace=wrap;html=1;fillColor=none;arcSize=50;" parent="1" vertex="1">
          <mxGeometry x="360" y="160" width="570" height="440" as="geometry" />
        </mxCell>
      </root>
    </mxGraphModel>
  </diagram>
</mxfile>
